<svg width="100%" viewBox="0 0 74 9" fill="none" xmlns="http://www.w3.org/2000/svg">
<path d="M2.25122 0.107024V0.476738H0.858344V8.45568H2.25122V8.834H0.428444V0.107024H2.25122ZM7.44414 1.86961V1.43971H5.68155V0.6401H7.44414V0.25319H8.44151V0.6401H10.4792V0.25319H11.4766V0.6401H13.2994V1.43971H11.4766V1.86961H10.4792V1.43971H8.44151V1.86961H7.44414ZM9.93757 6.16002H11.3218V5.60975H9.93757V6.16002ZM7.67629 5.60975V6.16002H8.97459V5.60975H7.67629ZM12.3364 4.91331V7.37234C12.3364 7.81943 12.2332 8.02578 11.9151 8.15475C11.6056 8.27513 11.1499 8.28372 10.548 8.27513C10.4964 8.03438 10.3589 7.71626 10.2385 7.50131C10.5996 7.5185 11.0381 7.5099 11.1499 7.5099C11.2789 7.50131 11.3218 7.47551 11.3218 7.37234V6.89945H7.67629V8.27513H6.67892V4.91331H12.3364ZM9.95476 3.93313H13.3338V4.63817H5.64716V3.93313H8.95739V3.6322H6.48117V3.00455H8.95739V2.72082H6.18024V2.04157H8.95739V1.69765H9.95476V2.04157H12.8523V2.72082H9.95476V3.00455H12.5514V3.6322H9.95476V3.93313ZM16.3775 5.32601L17.2717 4.99069L17.4866 5.92787C16.5322 6.34058 15.4919 6.76188 14.6665 7.08L14.3397 6.04824C14.6407 5.95367 15.0104 5.8247 15.4145 5.67853V3.2367H14.5289V2.27372H15.4145V0.330572H16.3775V2.27372H17.1857V3.2367H16.3775V5.32601ZM20.9172 5.77311H18.7075V6.93384H20.9172V5.77311ZM17.736 8.25793V4.86172H21.9404V8.22354H20.9172V7.86242H18.7075V8.25793H17.736ZM20.6421 2.11896H18.9741C19.1288 2.47147 19.2492 2.90997 19.275 3.2023L18.8623 3.30548H20.7367L20.3325 3.2023C20.4443 2.90137 20.5733 2.46288 20.6421 2.11896ZM21.2697 3.30548H22.4477V4.22547H17.0567V3.30548H18.2948C18.2518 2.98735 18.1401 2.56605 18.0197 2.24793L18.5958 2.11896H17.2889V1.20757H19.275V0.278984H20.2896V1.20757H22.2929V2.11896H21.158L21.7168 2.24793C21.5535 2.63484 21.4073 3.02175 21.2697 3.30548ZM26.142 6.2546C26.142 5.00789 26.6407 4.17388 28.0851 3.82996L29.0653 3.57202C29.8821 3.36567 30.3292 3.13352 30.3292 2.41989V2.33391C30.3292 1.76644 29.9251 1.4999 29.0137 1.4999C27.9562 1.4999 27.5778 1.87821 27.5778 2.64343V2.95296H26.2022V2.72082C26.2022 1.22476 27.062 0.33917 28.9965 0.33917C30.7677 0.33917 31.7049 1.07 31.7049 2.48007C31.7049 3.68379 30.9912 4.34584 29.8821 4.60378L28.8246 4.89611C27.6122 5.18844 27.5091 5.58395 27.5091 6.35777H31.6963V7.5271H26.142V6.2546ZM35.9347 7.61308C33.9572 7.61308 32.8652 6.28039 32.8652 4.48341V3.45165C32.8652 1.66326 33.9658 0.33917 35.9347 0.33917C37.9036 0.33917 38.9956 1.66326 38.9956 3.45165V4.48341C38.9956 6.28039 37.9036 7.61308 35.9347 7.61308ZM34.2323 4.65537C34.2323 5.61834 34.731 6.44375 35.9347 6.44375C37.1298 6.44375 37.6285 5.61834 37.6285 4.65537V3.28828C37.6285 2.3425 37.1298 1.5085 35.9347 1.5085C34.731 1.5085 34.2323 2.3425 34.2323 3.28828V4.65537ZM48.5433 4.28565V3.76117H44.6226V4.28565H48.5433ZM44.6226 6.98543H48.5433V6.40076H44.6226V6.98543ZM48.5433 5.61834V5.05947H44.6226V5.61834H48.5433ZM50.5208 2.33391H47.2536C47.1762 2.52306 47.0902 2.70362 47.0128 2.87558H49.6094V8.28372H48.5433V7.87962H44.6226V8.28372H43.608V2.87558H45.8779C45.9381 2.69502 45.9811 2.51446 46.024 2.33391H42.7568V1.38813H44.7258C44.5538 1.12159 44.313 0.829256 44.1067 0.588512L45.0181 0.175808C45.3362 0.485336 45.6801 0.906638 45.8521 1.19037L45.4738 1.38813H47.4427C47.6921 1.03561 47.9586 0.571316 48.1048 0.218798L49.2827 0.476738C49.0591 0.803462 48.8184 1.12159 48.5949 1.38813H50.5208V2.33391ZM55.9118 1.07V1.95559H51.7675V1.07H53.3409V0.304778H54.3297V1.07H55.9118ZM54.6306 5.83329H53.0228V6.96823H54.6306V5.83329ZM52.077 8.28372V4.9477H55.628V8.24933H54.6306V7.85382H53.0228V8.28372H52.077ZM54.5533 1.98139L55.5162 2.18774C55.3271 2.66063 55.1551 3.13352 55.009 3.46024H56.0063V4.38883H51.587V3.46024H52.5671C52.5413 3.11632 52.4124 2.58325 52.2662 2.18774L53.1002 2.01578C53.2808 2.40269 53.4183 2.91857 53.4527 3.27109L52.6445 3.46024H54.9316L54.2007 3.27969C54.3297 2.91857 54.4845 2.3769 54.5533 1.98139ZM58.8523 0.691688L59.6003 1.15598C59.2994 1.98999 58.9211 2.97876 58.5771 3.70959C59.308 4.48341 59.4369 5.15405 59.4369 5.72152C59.4369 6.34917 59.2994 6.77048 58.9726 7.00262C58.8093 7.1144 58.6029 7.18318 58.388 7.21757C58.1902 7.24337 57.9409 7.24337 57.7001 7.23477C57.7001 6.95963 57.6142 6.52113 57.4508 6.2288C57.6399 6.246 57.8033 6.2546 57.9323 6.246C58.0527 6.2374 58.1644 6.2202 58.2504 6.17721C58.4052 6.08264 58.4568 5.88488 58.4568 5.59255C58.4568 5.12826 58.2676 4.5092 57.5798 3.83856C57.8291 3.2281 58.1042 2.3511 58.3106 1.69765H57.2702V8.27513H56.2729V0.734678H58.6975L58.8523 0.691688ZM66.0058 6.77048H67.0892V5.34321H66.0058V6.77048ZM61.9304 5.34321V6.77048H62.9621V5.34321H61.9304ZM62.9621 2.93577H61.9304V4.37163H62.9621V2.93577ZM64.9998 5.34321H63.9681V6.77048H64.9998V5.34321ZM64.9998 2.93577H63.9681V4.37163H64.9998V2.93577ZM67.0892 2.93577H66.0058V4.37163H67.0892V2.93577ZM66.0058 1.9384H68.0951V8.24073H67.0892V7.77644H61.9304V8.24933H60.9588V1.9384H62.9621V0.330572H63.9681V1.9384H64.9998V0.330572H66.0058V1.9384ZM71.7407 8.834V8.46428H73.1335V0.485336H71.7407V0.107024H73.5634V8.834H71.7407Z" fill="#DDDDDD"/>
</svg>
