<svg width="100%" viewBox="0 0 329 11" fill="none" xmlns="http://www.w3.org/2000/svg">
<path d="M0.566379 6.57319C0.566379 5.59945 0.915084 4.8823 2.25727 4.61255L3.06653 4.4349C3.7771 4.28358 4.1916 4.11252 4.1916 3.52695V3.48748C4.1916 2.96113 3.78368 2.72427 2.94152 2.72427C1.95462 2.72427 1.56644 3.0664 1.56644 3.80329V3.94803H0.619014V3.8296C0.619014 2.61243 1.32958 1.90844 2.92836 1.90844C4.36266 1.90844 5.13244 2.4611 5.13244 3.55985C5.13244 4.5007 4.5403 4.98757 3.57972 5.17179L2.71782 5.36917C1.59934 5.59287 1.50722 5.94157 1.50722 6.6324H5.13244V7.44824H0.566379V6.57319ZM8.53694 7.51404C7.01054 7.51404 6.1618 6.54029 6.1618 4.93493V4.4678C6.1618 2.88218 7.01054 1.90844 8.53694 1.90844C10.0502 1.90844 10.8923 2.88218 10.8923 4.47438V4.94151C10.8923 6.54029 10.0502 7.51404 8.53694 7.51404ZM7.10265 5.00731C7.10265 5.35601 7.1487 5.65866 7.24739 5.9021L9.52384 3.08614C9.29357 2.84928 8.9646 2.72427 8.53694 2.72427C7.56978 2.72427 7.10265 3.34273 7.10265 4.41517V5.00731ZM7.54346 6.35607C7.78032 6.57977 8.10929 6.6982 8.53694 6.6982C9.48437 6.6982 9.9515 6.08632 9.9515 4.99415V4.40859C9.9515 4.07962 9.90545 3.79013 9.81334 3.54669L7.54346 6.35607ZM11.9448 6.57319C11.9448 5.59945 12.2935 4.8823 13.6357 4.61255L14.4449 4.4349C15.1555 4.28358 15.57 4.11252 15.57 3.52695V3.48748C15.57 2.96113 15.1621 2.72427 14.3199 2.72427C13.333 2.72427 12.9448 3.0664 12.9448 3.80329V3.94803H11.9974V3.8296C11.9974 2.61243 12.708 1.90844 14.3068 1.90844C15.7411 1.90844 16.5108 2.4611 16.5108 3.55985C16.5108 4.5007 15.9187 4.98757 14.9581 5.17179L14.0962 5.36917C12.9777 5.59287 12.8856 5.94157 12.8856 6.6324H16.5108V7.44824H11.9448V6.57319ZM21.3244 1.97423V5.60603H22.0284V6.42186H21.3244V7.44824H20.4033V6.42186H17.3307V5.57313L20.4099 1.97423H21.3244ZM18.2519 5.60603H20.4033V3.16509L18.2519 5.60603ZM23.366 7.51404C23.0699 7.51404 22.833 7.31008 22.833 6.99427C22.833 6.6653 23.0699 6.45476 23.366 6.45476C23.6554 6.45476 23.8923 6.6653 23.8923 6.99427C23.8923 7.31008 23.6554 7.51404 23.366 7.51404ZM26.8565 6.6324H28.2645V2.96771C27.8829 3.24404 27.3697 3.38879 26.8368 3.38879V2.54005C27.3697 2.54005 27.9026 2.44136 28.3237 1.97423H29.1856V6.6324H30.6001V7.44824H26.8565V6.6324ZM33.542 7.51404C32.0156 7.51404 31.1669 6.54029 31.1669 4.93493V4.4678C31.1669 2.88218 32.0156 1.90844 33.542 1.90844C35.0553 1.90844 35.8974 2.88218 35.8974 4.47438V4.94151C35.8974 6.54029 35.0553 7.51404 33.542 7.51404ZM32.1077 5.00731C32.1077 5.35601 32.1538 5.65866 32.2525 5.9021L34.5289 3.08614C34.2987 2.84928 33.9697 2.72427 33.542 2.72427C32.5749 2.72427 32.1077 3.34273 32.1077 4.41517V5.00731ZM32.5486 6.35607C32.7854 6.57977 33.1144 6.6982 33.542 6.6982C34.4895 6.6982 34.9566 6.08632 34.9566 4.99415V4.40859C34.9566 4.07962 34.9105 3.79013 34.8184 3.54669L32.5486 6.35607ZM40.4059 1.97423L36.6623 7.44824H36.2938L40.0375 1.97423H40.4059ZM40.869 6.57319C40.869 5.59945 41.2177 4.8823 42.5598 4.61255L43.3691 4.4349C44.0797 4.28358 44.4942 4.11252 44.4942 3.52695V3.48748C44.4942 2.96113 44.0863 2.72427 43.2441 2.72427C42.2572 2.72427 41.869 3.0664 41.869 3.80329V3.94803H40.9216V3.8296C40.9216 2.61243 41.6322 1.90844 43.2309 1.90844C44.6652 1.90844 45.435 2.4611 45.435 3.55985C45.435 4.5007 44.8429 4.98757 43.8823 5.17179L43.0204 5.36917C41.9019 5.59287 41.8098 5.94157 41.8098 6.6324H45.435V7.44824H40.869V6.57319ZM48.7014 7.51404C47.1421 7.51404 46.4381 6.98769 46.4052 5.73761V5.67182H47.3394V5.77051C47.3723 6.49424 47.8131 6.6982 48.6948 6.6982C49.6883 6.6982 50.0304 6.45476 50.0304 5.92841V5.79683C50.0304 5.24416 49.6751 5.0731 48.7343 5.0731H47.9513V4.25726H48.7343C49.6159 4.25726 49.958 4.05988 49.958 3.56643V3.448C49.958 2.94139 49.5501 2.72427 48.7014 2.72427C47.9579 2.72427 47.471 2.89534 47.4447 3.59933V3.68486H46.5104V3.62564C46.5433 2.41505 47.2802 1.90844 48.6948 1.90844C50.287 1.90844 50.8923 2.55321 50.8923 3.45458V3.49406C50.912 4.07304 50.662 4.52044 50.1028 4.6586C50.7015 4.80335 50.9646 5.2639 50.9646 5.88894V5.92841C50.9646 6.98111 50.2475 7.51404 48.7014 7.51404ZM55.1912 8.32524C54.4231 7.35653 54.0563 6.48527 54.0563 5.39045C54.0563 4.28418 54.4288 3.43584 55.1912 2.4786H55.5065C54.7212 3.49316 54.3429 4.29564 54.3429 5.39045C54.3429 6.491 54.7097 7.28201 55.5065 8.32524H55.1912ZM57.1731 7.44824L55.8433 2.67922H56.6801L57.7119 6.55405L58.7838 2.67922H59.827L60.9046 6.54832L60.9103 6.55978L61.9306 2.67922H62.7675L61.4434 7.44824H60.3773L59.3226 3.625L59.3111 3.57341L59.2939 3.625L58.2392 7.44824H57.1731ZM63.5828 7.44824V2.67922H66.9704V3.39572H64.391V4.70835H66.8042V5.41911H64.391V6.73174H66.9704V7.44824H63.5828ZM68.0271 7.44824V2.67922H70.0849C71.3975 2.67922 72.1484 3.34986 72.1484 4.85165V5.27581C72.1484 6.76613 71.3918 7.44824 70.0849 7.44824H68.0271ZM68.8353 6.74321H70.0906C70.939 6.74321 71.323 6.29038 71.323 5.31021V4.81725C71.323 3.83708 70.939 3.38425 70.0849 3.38425H68.8353V6.74321ZM72.7642 2.46713C73.5323 3.43584 73.8991 4.30711 73.8991 5.40192C73.8991 6.50819 73.5266 7.35653 72.7642 8.31377H72.4489C73.2342 7.29921 73.6125 6.49673 73.6125 5.40192C73.6125 4.30137 73.2457 3.51036 72.4489 2.46713H72.7642ZM92.1123 6.6324H93.5203V2.96771C93.1387 3.24404 92.6255 3.38879 92.0926 3.38879V2.54005C92.6255 2.54005 93.1584 2.44136 93.5795 1.97423H94.4414V6.6324H95.8559V7.44824H92.1123V6.6324ZM98.7978 7.51404C97.2714 7.51404 96.4227 6.54029 96.4227 4.93493V4.4678C96.4227 2.88218 97.2714 1.90844 98.7978 1.90844C100.311 1.90844 101.153 2.88218 101.153 4.47438V4.94151C101.153 6.54029 100.311 7.51404 98.7978 7.51404ZM97.3635 5.00731C97.3635 5.35601 97.4096 5.65866 97.5083 5.9021L99.7847 3.08614C99.5545 2.84928 99.2255 2.72427 98.7978 2.72427C97.8307 2.72427 97.3635 3.34273 97.3635 4.41517V5.00731ZM97.8044 6.35607C98.0412 6.57977 98.3702 6.6982 98.7978 6.6982C99.7453 6.6982 100.212 6.08632 100.212 4.99415V4.40859C100.212 4.07962 100.166 3.79013 100.074 3.54669L97.8044 6.35607ZM105.662 1.97423L101.918 7.44824H101.55L105.293 1.97423H105.662ZM106.125 6.57319C106.125 5.59945 106.473 4.8823 107.816 4.61255L108.625 4.4349C109.335 4.28358 109.75 4.11252 109.75 3.52695V3.48748C109.75 2.96113 109.342 2.72427 108.5 2.72427C107.513 2.72427 107.125 3.0664 107.125 3.80329V3.94803H106.177V3.8296C106.177 2.61243 106.888 1.90844 108.487 1.90844C109.921 1.90844 110.691 2.4611 110.691 3.55985C110.691 4.5007 110.099 4.98757 109.138 5.17179L108.276 5.36917C107.158 5.59287 107.066 5.94157 107.066 6.6324H110.691V7.44824H106.125V6.57319ZM111.45 2.79007V1.97423H115.753V2.79007C113.72 4.13883 113.556 5.9021 113.556 7.38903V7.44824H112.622V7.38903C112.622 5.92841 112.799 4.01383 114.694 2.79007H111.45ZM119.766 8.32524C118.998 7.35653 118.631 6.48527 118.631 5.39045C118.631 4.28418 119.004 3.43584 119.766 2.4786H120.081C119.296 3.49316 118.918 4.29564 118.918 5.39045C118.918 6.491 119.284 7.28201 120.081 8.32524H119.766ZM122.486 7.50556C121.041 7.50556 120.388 6.93236 120.388 5.85475V5.74584H121.213V5.90633C121.213 6.54832 121.597 6.81199 122.503 6.81199C123.254 6.81199 123.592 6.6171 123.592 6.17001V6.11842C123.586 5.67132 123.329 5.53949 122.669 5.40765L121.724 5.18983C121.019 5.02934 120.526 4.66822 120.526 3.94026C120.526 3.08046 121.173 2.6219 122.383 2.6219C123.65 2.6219 124.297 3.13205 124.297 4.06063V4.17527H123.478V4.0377C123.478 3.53329 123.162 3.31547 122.388 3.31547C121.689 3.31547 121.357 3.49889 121.357 3.88294V3.91733C121.357 4.28991 121.678 4.45614 122.199 4.55931L123.157 4.7714C123.942 4.93763 124.418 5.26435 124.418 6.07829C124.418 7.07566 123.839 7.50556 122.486 7.50556ZM127.375 7.50556C125.953 7.50556 125.375 6.94956 125.375 5.63693V2.67922H126.183V5.68279C126.183 6.52539 126.567 6.79479 127.375 6.79479C128.177 6.79479 128.562 6.52539 128.562 5.68279V2.67922H129.37V5.63693C129.37 6.96675 128.779 7.50556 127.375 7.50556ZM130.548 7.44824V2.67922H131.339L133.763 6.18147V2.67922H134.554V7.44824H133.763L131.333 3.94599V7.44824H130.548ZM135.592 2.46713C136.361 3.43584 136.727 4.30711 136.727 5.40192C136.727 6.50819 136.355 7.35653 135.592 8.31377H135.277C136.062 7.29921 136.441 6.49673 136.441 5.40192C136.441 4.30137 136.074 3.51036 135.277 2.46713H135.592ZM146.156 3.79671H145.406C145.498 4.34279 145.63 4.85598 145.808 5.32969C145.972 4.8823 146.084 4.36911 146.156 3.79671ZM143.643 4.57307L143.781 4.53359L144.011 4.71782C144.123 4.57965 144.229 4.42175 144.327 4.2441H143.544C143.452 4.35595 143.36 4.4678 143.261 4.57307H143.643ZM142.932 3.13219V3.57301H143.15C143.255 3.42826 143.353 3.28352 143.446 3.13219H142.932ZM147.354 3.79671H146.966C146.827 4.77045 146.604 5.57313 146.255 6.24422C146.551 6.71136 146.933 7.09296 147.42 7.34297C147.242 7.50088 146.998 7.81011 146.88 8.02722C146.426 7.75747 146.064 7.40219 145.768 6.96795C145.406 7.40219 144.952 7.75747 144.38 8.04696C144.307 7.86274 144.077 7.50088 143.932 7.33639C144.551 7.06006 145.005 6.69162 145.347 6.21133C145.163 5.80999 145.018 5.36259 144.9 4.87572C144.801 5.0402 144.702 5.19153 144.597 5.32969C144.511 5.231 144.327 5.05994 144.163 4.92835C143.9 5.23758 143.564 5.57313 143.242 5.82972V5.96131C143.636 5.93499 144.038 5.89552 144.432 5.86262V6.53371C144.038 6.57319 143.636 6.60609 143.242 6.63898V7.28376C143.242 7.61931 143.182 7.79695 142.946 7.9088C142.709 8.01407 142.406 8.02064 141.998 8.02064C141.965 7.81669 141.867 7.54035 141.774 7.35613C142.024 7.36271 142.314 7.36271 142.393 7.35613C142.478 7.35613 142.505 7.33639 142.505 7.26402V6.70478C142.051 6.74425 141.63 6.78373 141.268 6.81663L141.189 6.11922C141.557 6.0929 142.011 6.06 142.505 6.02053V5.50734H142.761C142.873 5.40865 142.992 5.2968 143.103 5.17837H142.636C142.314 5.44812 141.978 5.68498 141.617 5.88894C141.511 5.73761 141.248 5.43496 141.09 5.29022C141.334 5.17179 141.564 5.03362 141.781 4.88888V4.57307H142.202C142.327 4.4678 142.446 4.35595 142.564 4.2441H141.242V3.57301H142.202V3.13219H141.459V2.47426H142.202V1.87554H142.932V2.47426H143.571V2.92166C143.728 2.64532 143.867 2.34267 143.985 2.03344L144.709 2.2374C144.518 2.7177 144.288 3.15851 144.025 3.57301H144.439V4.02041C144.729 3.40853 144.926 2.6519 145.044 1.87554L145.84 1.99397C145.775 2.36241 145.696 2.72427 145.604 3.07298H147.354V3.79671ZM149.88 6.4416H152.374V6.12579H149.88V6.4416ZM152.374 5.27706H149.88V5.59287H152.374V5.27706ZM153.17 4.64544V7.29034C153.17 7.65878 153.078 7.82326 152.808 7.92195C152.538 8.01407 152.15 8.02064 151.617 8.02064C151.578 7.82984 151.472 7.57325 151.387 7.39561C151.703 7.41535 152.124 7.41535 152.222 7.40877C152.341 7.40877 152.374 7.37587 152.374 7.28376V6.98111H149.88V8.02064H149.097V4.64544H153.17ZM152.13 3.11904H150.683C150.538 3.30326 150.38 3.49406 150.229 3.6717C150.867 3.65854 151.551 3.65196 152.242 3.6388C152.097 3.52038 151.953 3.40853 151.815 3.30984L152.13 3.11904ZM154.032 3.11904H152.729C153.209 3.46774 153.755 3.90856 154.045 4.2441L153.354 4.68492C153.255 4.55991 153.117 4.41517 152.959 4.26384C151.321 4.32305 149.604 4.36911 148.452 4.39543L148.433 3.69144L149.347 3.67828C149.472 3.50064 149.591 3.30326 149.696 3.11904H148.202V2.43478H150.716V1.87554H151.518V2.43478H154.032V3.11904ZM158.229 2.50716V3.18483H155.058V2.50716H156.262V1.9216H157.019V2.50716H158.229ZM157.249 6.15211H156.019V7.02058H157.249V6.15211ZM155.295 8.02722V5.47444H158.012V8.00091H157.249V7.69826H156.019V8.02722H155.295ZM157.19 3.20457L157.927 3.36247C157.782 3.72433 157.65 4.0862 157.539 4.33621H158.302V5.04678H154.92V4.33621H155.67C155.65 4.07304 155.552 3.66512 155.44 3.36247L156.078 3.23088C156.216 3.52695 156.321 3.92172 156.348 4.19147L155.729 4.33621H157.479L156.92 4.19805C157.019 3.92172 157.137 3.50722 157.19 3.20457ZM160.479 2.21767L161.052 2.57295C160.822 3.21115 160.532 3.96777 160.269 4.52701C160.828 5.11916 160.927 5.63234 160.927 6.06658C160.927 6.54687 160.822 6.86926 160.572 7.0469C160.447 7.13243 160.289 7.18507 160.124 7.21139C159.973 7.23112 159.782 7.23112 159.598 7.22454C159.598 7.01401 159.532 6.67846 159.407 6.45476C159.552 6.46792 159.677 6.4745 159.776 6.46792C159.868 6.46134 159.953 6.44818 160.019 6.41529C160.137 6.34291 160.177 6.19159 160.177 5.96789C160.177 5.61261 160.032 5.13889 159.506 4.6257C159.697 4.15857 159.907 3.48748 160.065 2.98745H159.269V8.02064H158.506V2.25056H160.361L160.479 2.21767ZM163.342 2.98745V2.77691H161.887V2.23082H163.342V1.87554H164.098V2.23082H165.5V1.87554H166.269V2.23082H167.75V2.77691H166.269V2.98745H165.5V2.77691H164.098V2.98745H163.342ZM165.789 7.04032H164.118C164.013 7.17849 163.914 7.31008 163.815 7.43508C164.48 7.40877 165.21 7.37587 165.94 7.34297C165.815 7.27718 165.697 7.21139 165.578 7.15875L165.789 7.04032ZM161.855 7.04032V6.58635H167.743V7.04032H166.467C166.868 7.25086 167.269 7.52061 167.519 7.73773L166.98 8.07328C166.881 7.97459 166.75 7.86932 166.598 7.75747C165.039 7.85616 163.42 7.94169 162.309 8.00091L162.23 7.48772C162.486 7.48114 162.776 7.46798 163.098 7.4614C163.184 7.33639 163.276 7.18507 163.355 7.04032H161.855ZM162.684 5.93499H166.986V6.38897H162.684V5.93499ZM166.526 3.99409H166.171C166.164 4.16515 166.138 4.34937 166.085 4.52701C166.256 4.6257 166.407 4.72439 166.526 4.82308V3.99409ZM167.217 5.24416H167.302C167.329 5.24416 167.361 5.23758 167.375 5.22442C167.394 5.21127 167.408 5.17179 167.421 5.106C167.434 5.03362 167.44 4.86256 167.447 4.65202C167.552 4.74413 167.73 4.83624 167.868 4.8823C167.862 5.11916 167.835 5.38233 167.796 5.48102C167.756 5.58629 167.704 5.65866 167.611 5.7113C167.539 5.75735 167.414 5.77709 167.315 5.77709H167.052C166.908 5.77709 166.756 5.73761 166.657 5.63892C166.559 5.53365 166.526 5.40865 166.526 5.02047V4.96783L166.243 5.34943C166.144 5.2639 166.019 5.16521 165.868 5.06652C165.703 5.36917 165.447 5.65208 165.059 5.9021C164.999 5.82972 164.901 5.73761 164.796 5.6455V5.7113C163.769 5.78367 162.71 5.84288 161.953 5.88236L161.92 5.44154C162.243 5.42838 162.631 5.41523 163.065 5.39549V5.17837H162.216V4.79677H163.065V4.47438H163.572C163.552 4.40859 163.545 4.32305 163.545 4.21779V4.13225H163.091C162.986 4.48754 162.716 4.68492 162.072 4.80335C162.032 4.69808 161.914 4.52701 161.822 4.45464C162.289 4.39543 162.499 4.30332 162.591 4.13225H161.96V3.73749H163.059V3.55327H162.256V3.17167H163.059V3.00719H163.717V3.17167H164.513V3.55327H163.717V3.73749H164.815V4.13225H164.006V4.21779C164.006 4.32963 164.019 4.34279 164.098 4.34279H164.342C164.421 4.34279 164.447 4.31648 164.46 4.17173C164.539 4.22436 164.71 4.277 164.828 4.30332C164.789 4.58623 164.671 4.67176 164.414 4.67176H164.032C163.894 4.67176 163.789 4.6586 163.717 4.63228V4.79677H164.572V5.17837H163.717V5.36259C164.072 5.34943 164.44 5.32969 164.802 5.30996V5.35601C165.052 5.16521 165.223 4.96125 165.342 4.75729C165.157 4.65202 164.967 4.55991 164.789 4.48754L165.125 4.06646C165.256 4.1191 165.401 4.17831 165.546 4.2441C165.565 4.15857 165.578 4.07304 165.585 3.99409H164.934V3.448H165.605V3.04666H166.184V3.448H167.144V5.01389C167.144 5.13231 167.144 5.19153 167.158 5.21127C167.171 5.23758 167.19 5.24416 167.217 5.24416ZM174.618 2.23082V2.91508H173.059V2.23082H174.618ZM172.993 2.94139L172.46 3.18483C172.382 2.94139 172.197 2.55321 172.026 2.26372L172.546 2.0466C172.717 2.32951 172.914 2.69796 172.993 2.94139ZM169.638 1.88212L170.342 2.13213C169.993 2.70454 169.441 3.32299 168.934 3.72433C168.842 3.55985 168.651 3.27036 168.533 3.13877C168.954 2.81639 169.408 2.29662 169.638 1.88212ZM170.447 4.61913L171.072 4.71124C171.006 5.62576 170.868 6.54029 170.612 7.13901C170.5 7.0469 170.23 6.86268 170.085 6.77715C170.322 6.2508 170.408 5.42838 170.447 4.61913ZM172.829 3.98751H171.98V7.91538H171.256V3.98751H170.381V3.71776C170.27 3.94145 170.138 4.17173 170 4.38885V8.02064H169.283V5.35601C169.144 5.50734 169.013 5.65208 168.875 5.77709C168.802 5.61261 168.592 5.21785 168.454 5.05336C168.973 4.61913 169.48 3.93487 169.789 3.2572L170.381 3.46116V3.27036H171.256V1.97423H171.98V3.27036H172.829V3.98751ZM172.105 4.74413L172.678 4.63228C172.816 5.2639 172.934 6.05342 172.974 6.58635L172.368 6.70478C172.349 6.17843 172.23 5.36917 172.105 4.74413ZM174.717 4.07962V4.77703H174.211V7.17191C174.211 7.54035 174.158 7.75089 173.928 7.8759C173.697 8.00091 173.375 8.01407 172.941 8.01407C172.921 7.79695 172.829 7.48114 172.73 7.25086C173 7.26402 173.276 7.26402 173.355 7.26402C173.441 7.26402 173.467 7.24428 173.467 7.15875V4.77703H172.895V4.07962H174.717ZM176.777 5.2968L176.796 5.8363H177.691V4.46122H178.31V5.8363H178.685V4.23752H177.704V2.54663C177.388 2.69796 177.033 2.85586 176.711 2.98087L176.724 3.45458H177.467V4.09936H176.744L176.757 4.65202H177.467V5.2968H176.777ZM181.527 5.8363V6.56661H179.737C180.382 6.87584 181.093 7.2377 181.514 7.4943L180.744 8.02722C180.329 7.75089 179.599 7.31666 178.935 6.99427L179.415 6.56661H177.441L178.02 6.98769C177.5 7.34955 176.704 7.77063 176.112 8.02064C175.967 7.86274 175.691 7.62588 175.507 7.48114C176.086 7.26402 176.796 6.88242 177.23 6.56661H175.48V5.8363H176.092L175.987 2.30978L176.428 2.4282C176.717 2.2703 177.007 2.08608 177.204 1.93475L177.704 2.41505V1.95449H178.369V2.53347H179.375V3.18483H178.369V3.62564H179.349V5.8363H180.165C180.171 5.67182 180.185 5.4876 180.198 5.30338H179.573V4.6586H180.224C180.231 4.47438 180.237 4.29016 180.244 4.09936H179.579V3.45458H180.257C180.264 3.27694 180.264 3.10588 180.264 2.93481H179.5V2.25714H180.987C180.981 3.40853 180.954 4.8494 180.895 5.8363H181.527ZM184.586 2.0795V2.67164H182.599V2.0795H184.586ZM184.836 2.96113V3.57959H182.264V2.96113H184.836ZM184.599 4.77703V5.36259H182.573V4.77703H184.599ZM187.113 5.40207H185.856C186.014 5.73103 186.231 6.0271 186.494 6.29028C186.751 6.03368 186.955 5.73761 187.113 5.40207ZM183.915 7.06006V6.30344H183.218V7.06006H183.915ZM187.606 4.66518L188.119 4.85598C187.909 5.65208 187.56 6.27712 187.106 6.77057C187.494 7.02058 187.955 7.21139 188.461 7.33639C188.29 7.50088 188.067 7.81011 187.955 8.01407C187.402 7.84958 186.922 7.60615 186.507 7.29692C186.067 7.60615 185.56 7.843 185.001 8.01407C184.922 7.82326 184.738 7.51404 184.593 7.33639V7.67194H183.218V7.92853H182.553V5.68498H184.593V7.32323C185.086 7.19823 185.534 7.01401 185.922 6.75741C185.619 6.42844 185.369 6.04684 185.165 5.61919L185.836 5.40207H184.922V4.69808H185.145C185.034 4.56649 184.757 4.32963 184.599 4.22436V4.47438H182.573V3.87566H184.599V4.19147C185.165 3.80329 185.238 3.28352 185.238 2.8427V2.05976H187.442V3.53353C187.442 3.71776 187.455 3.73749 187.527 3.73749H187.692C187.777 3.73749 187.803 3.65196 187.81 3.07956C187.955 3.19141 188.257 3.30326 188.448 3.35589C188.382 4.17173 188.211 4.40201 187.771 4.40201H187.389C186.863 4.40201 186.711 4.19805 186.711 3.54669V2.75059H185.974V2.86244C185.974 3.4809 185.843 4.23094 185.159 4.69808H187.475L187.606 4.66518ZM191.547 2.0795V2.67164H189.461V2.0795H191.547ZM191.797 2.96113V3.57959H189.106V2.96113H191.797ZM190.83 6.30344H190.08V7.06006H190.83V6.30344ZM191.514 5.68498V7.67194H190.08V7.92853H189.402V5.68498H191.514ZM189.422 5.36259V4.77703H191.534V5.36259H189.422ZM189.422 4.47438V3.87566H191.534V4.47438H189.422ZM195.311 4.07304V4.8494H193.935V8.02064H193.146V4.8494H191.771V4.07304H193.146V1.90186H193.935V4.07304H195.311ZM197.462 3.11904V2.79007H196.113V2.17819H197.462V1.88212H198.225V2.17819H199.784V1.88212H200.548V2.17819H201.942V2.79007H200.548V3.11904H199.784V2.79007H198.225V3.11904H197.462ZM199.37 6.40213H200.429V5.98105H199.37V6.40213ZM197.64 5.98105V6.40213H198.633V5.98105H197.64ZM201.206 5.44812V7.32981C201.206 7.67194 201.127 7.82984 200.883 7.92853C200.646 8.02064 200.298 8.02722 199.837 8.02064C199.798 7.83642 199.692 7.59299 199.6 7.4285C199.877 7.44166 200.212 7.43508 200.298 7.43508C200.396 7.4285 200.429 7.40877 200.429 7.32981V6.96795H197.64V8.02064H196.876V5.44812H201.206ZM199.383 4.69808H201.969V5.23758H196.087V4.69808H198.62V4.4678H196.725V3.98751H198.62V3.77039H196.495V3.25062H198.62V2.98745H199.383V3.25062H201.6V3.77039H199.383V3.98751H201.37V4.4678H199.383V4.69808ZM204.258 3.6717V3.08614H202.975V2.38215H204.258V1.88212H205.035V2.38215H206.66V1.88212H207.443V2.38215H208.739V3.08614H207.443V3.6717H206.66V3.08614H205.035V3.6717H204.258ZM204.298 5.51392H205.416C205.43 5.43496 205.43 5.35601 205.43 5.27706V4.68492H204.298V5.51392ZM207.43 4.68492H206.252V5.29022C206.252 5.36259 206.252 5.44154 206.245 5.51392H207.43V4.68492ZM208.811 6.24422H206.522C207.015 6.84294 207.831 7.19165 208.982 7.31008C208.811 7.48772 208.594 7.81669 208.496 8.0338C207.265 7.83642 206.463 7.38245 205.91 6.59293C205.522 7.20481 204.739 7.71142 203.252 8.0338C203.166 7.86274 202.943 7.54693 202.765 7.36929C204.173 7.1127 204.864 6.71136 205.173 6.24422H202.91V5.51392H203.541V4.00725H205.43V3.34931H206.252V4.00725H208.226V5.51392H208.811V6.24422ZM211.469 2.56637L210.996 3.19141C210.779 2.97429 210.311 2.67164 209.923 2.494L210.371 1.9216C210.739 2.0795 211.226 2.34925 211.469 2.56637ZM211.154 4.28358L210.693 4.9152C210.476 4.69808 210.009 4.41517 209.634 4.2441L210.061 3.66512C210.436 3.81645 210.917 4.06646 211.154 4.28358ZM210.456 7.95485L209.752 7.52719C210.029 7.01401 210.423 6.17185 210.713 5.40207L211.338 5.8363C211.081 6.54029 210.759 7.31008 210.456 7.95485ZM213.818 6.43502H214.516C214.535 6.24422 214.555 6.01395 214.575 5.74419H213.897C213.871 5.98763 213.845 6.22448 213.818 6.43502ZM213.226 5.74419H212.621C212.588 5.98105 212.555 6.21133 212.529 6.43502H213.147C213.173 6.22448 213.2 5.98763 213.226 5.74419ZM212.779 4.41517L212.706 5.0402H213.298C213.312 4.82966 213.331 4.61913 213.344 4.41517H212.779ZM213.963 5.0402H214.614C214.621 4.8494 214.634 4.63886 214.641 4.41517H214.016C214.002 4.61913 213.983 4.82966 213.963 5.0402ZM215.831 5.74419H215.292C215.279 6.00737 215.259 6.23106 215.239 6.43502H215.759V7.09296H215.154C215.101 7.40219 215.035 7.58641 214.956 7.69168C214.812 7.89564 214.654 7.96143 214.43 7.98775C214.239 8.02064 213.923 8.02064 213.601 8.00749C213.595 7.81669 213.516 7.54035 213.41 7.36929C213.693 7.38903 213.95 7.39561 214.081 7.39561C214.193 7.39561 214.259 7.37587 214.325 7.29034C214.351 7.25086 214.384 7.18507 214.41 7.09296H212.43L212.377 7.41535L211.627 7.35613C211.713 6.91532 211.812 6.34949 211.897 5.74419H211.331V5.0402H211.989C212.035 4.67834 212.075 4.31648 212.108 3.98093C212.029 4.0862 211.95 4.17831 211.871 4.27042C211.733 4.13883 211.397 3.91514 211.213 3.82303C211.68 3.36247 212.055 2.61901 212.259 1.87554L213.029 2.03344C212.969 2.23082 212.904 2.4282 212.831 2.61901H215.693V3.31642H212.515C212.437 3.46774 212.351 3.61249 212.259 3.75065H215.384C215.384 3.75065 215.384 3.97435 215.378 4.06646C215.364 4.42175 215.351 4.74413 215.331 5.0402H215.831V5.74419ZM219.128 3.57301H218.161C218.042 3.84276 217.911 4.09278 217.766 4.33621C218.095 4.52701 218.443 4.76387 218.707 4.97441C218.884 4.55333 219.022 4.0862 219.128 3.57301ZM221.391 1.8887V4.95467C221.812 5.32311 222.286 5.62576 222.766 5.8363C222.575 6.00079 222.325 6.3166 222.194 6.52056C221.917 6.37581 221.648 6.19817 221.391 6.00079V8.00749H220.575V5.23758C220.279 4.9152 220.009 4.55333 219.773 4.17831C219.279 6.04026 218.365 7.29692 217.193 7.96143C217.062 7.79037 216.759 7.50088 216.568 7.37587C217.292 7.00085 217.891 6.43502 218.351 5.67182C218.095 5.43496 217.713 5.15205 217.364 4.92178C217.259 5.06652 217.147 5.19153 217.029 5.30996C216.891 5.17837 216.568 4.92178 216.378 4.80993C217.101 4.15199 217.634 3.05324 217.924 1.87554L218.7 2.02686C218.628 2.3032 218.549 2.56637 218.457 2.82954H219.371L219.509 2.80323L220.023 2.98087C219.99 3.17825 219.957 3.36905 219.924 3.55327L220.167 3.46116C220.279 3.6717 220.417 3.88882 220.575 4.09278V1.8887H221.391ZM224.825 5.76393L225.51 5.50734L225.674 6.22448C224.944 6.54029 224.148 6.86268 223.516 7.10612L223.266 6.3166C223.496 6.24422 223.779 6.14553 224.089 6.03368V4.16515H223.411V3.42826H224.089V1.94133H224.825V3.42826H225.444V4.16515H224.825V5.76393ZM228.299 6.10606H226.608V6.99427H228.299V6.10606ZM225.865 8.00749V5.40865H229.082V7.98117H228.299V7.70484H226.608V8.00749H225.865ZM228.089 3.30984H226.812C226.931 3.57959 227.023 3.91514 227.043 4.13883L226.727 4.21779H228.161L227.852 4.13883C227.937 3.90856 228.036 3.57301 228.089 3.30984ZM228.569 4.21779H229.47V4.92178H225.345V4.21779H226.293C226.26 3.97435 226.174 3.65196 226.082 3.40853L226.523 3.30984H225.523V2.61243H227.043V1.90186H227.819V2.61243H229.352V3.30984H228.484L228.911 3.40853C228.786 3.7046 228.674 4.00067 228.569 4.21779ZM232.484 2.0795V2.67164H230.497V2.0795H232.484ZM232.734 2.96113V3.57959H230.161V2.96113H232.734ZM232.497 3.87566V4.47438H230.471V3.87566H232.497ZM230.471 5.36259V4.77703H232.497V5.36259H230.471ZM231.813 7.06006V6.30344H231.115V7.06006H231.813ZM232.977 4.58623V2.11898H233.681V4.59281C233.681 5.81657 233.615 7.06664 233.01 8.01407C232.892 7.88248 232.661 7.69168 232.49 7.57983V7.67194H231.115V7.92853H230.451V5.68498H232.49V7.39561C232.925 6.59293 232.977 5.59287 232.977 4.58623ZM234.155 7.37587V2.44794H234.833V7.37587H234.155ZM235.313 2.09266H236.056V8.00091H235.313V2.09266ZM239.445 2.0795V2.67164H237.359V2.0795H239.445ZM239.695 2.96113V3.57959H237.004V2.96113H239.695ZM238.728 6.30344H237.978V7.06006H238.728V6.30344ZM239.412 5.68498V7.67194H237.978V7.92853H237.3V5.68498H239.412ZM237.32 5.36259V4.77703H239.432V5.36259H237.32ZM237.32 4.47438V3.87566H239.432V4.47438H237.32ZM243.208 4.07304V4.8494H241.833V8.02064H241.044V4.8494H239.668V4.07304H241.044V1.90186H241.833V4.07304H243.208ZM243.938 7.843V7.32981H249.912V7.843H243.938ZM248.426 6.13895V5.90868H247.254V6.13895H248.426ZM248.426 6.74425V6.50082H247.254V6.74425H248.426ZM245.452 6.50082V6.74425H246.537V6.50082H245.452ZM245.452 5.90868V6.13895H246.537V5.90868H245.452ZM244.682 5.53365H249.222V7.11928H244.682V5.53365ZM247.274 3.31642V3.55327H248.432V3.31642H247.274ZM247.274 2.67822V2.89534H248.432V2.67822H247.274ZM247.274 4.83624H249.919V5.31654H243.945V4.83624H246.485V4.60597H244.412V4.19147H246.485V3.96119H244.616V3.55327H246.485V3.31642H243.965V2.89534H246.485V2.67822H244.649V2.26372H246.485V1.87554H247.274V2.26372H249.215V2.89534H249.873V3.31642H249.215V3.96119H247.274V4.19147H249.472V4.60597H247.274V4.83624ZM257.65 4.17173H256.578C256.716 4.52701 256.9 4.8494 257.13 5.13231C257.348 4.8494 257.519 4.52701 257.65 4.17173ZM258.104 3.45458L258.604 3.61249C258.427 4.46122 258.111 5.14547 257.69 5.6784C258.058 5.96131 258.492 6.17185 259.012 6.31002C258.841 6.46134 258.617 6.77715 258.512 6.98769C257.973 6.81663 257.525 6.56661 257.144 6.24422C256.782 6.54687 256.367 6.78373 255.907 6.96795C255.815 6.77057 255.617 6.46134 255.466 6.31002C255.887 6.17185 256.275 5.95473 256.604 5.6784C256.295 5.27706 256.051 4.80993 255.867 4.27042C255.815 5.12573 255.643 6.13895 255.111 6.83636C254.972 6.70478 254.637 6.48766 254.453 6.41529C255.071 5.63234 255.13 4.48754 255.13 3.65854V2.13213H258.749V2.86244H255.88V3.47432H257.959L258.104 3.45458ZM254.604 3.0335L253.979 3.54669C253.788 3.23746 253.328 2.79007 252.946 2.494L253.532 2.02686C253.913 2.3032 254.387 2.72427 254.604 3.0335ZM254.433 4.42832V6.49424C254.709 6.93505 255.209 7.1127 255.9 7.13901C256.67 7.17191 258.163 7.15217 259.038 7.08638C258.946 7.2706 258.828 7.6522 258.795 7.8759C257.999 7.91538 256.676 7.92853 255.887 7.89564C255.071 7.86274 254.525 7.67852 254.097 7.16533C253.814 7.42192 253.532 7.67852 253.183 7.95485L252.801 7.13901C253.064 6.98111 253.387 6.75741 253.67 6.53371V5.14547H252.946V4.42832H254.433ZM262.052 5.18495V4.76387H261.611V5.18495H262.052ZM262.578 4.34937V5.59945H261.111V4.34937H262.578ZM260.703 7.06664H264.795V2.85586H263.98C264.19 2.96113 264.414 3.11246 264.532 3.23746L264.269 3.5138H264.585V4.06646H263.407C263.44 4.4349 263.479 4.77703 263.532 5.0731C263.664 4.81651 263.762 4.54675 263.841 4.25068L264.44 4.36911C264.282 4.94151 264.045 5.44154 263.749 5.87578C263.835 6.07316 263.933 6.19817 264.052 6.22448C264.124 6.2508 264.177 5.99421 264.203 5.61261C264.322 5.73103 264.558 5.90868 264.69 5.98105C264.585 6.79031 264.243 7.04032 263.808 6.84294C263.611 6.77715 263.447 6.62582 263.315 6.40871C263.104 6.61925 262.881 6.81005 262.631 6.96795C262.545 6.84952 262.335 6.59951 262.203 6.49424C262.275 6.45476 262.348 6.40871 262.414 6.36265C261.887 6.4416 261.374 6.51398 260.94 6.58635L260.867 6.01395C261.348 5.96131 262.032 5.88236 262.716 5.79025L262.729 6.11922C262.848 6.02053 262.953 5.90868 263.058 5.79025C262.92 5.31654 262.835 4.71782 262.775 4.06646H260.946V3.5138H262.729C262.716 3.32957 262.71 3.14535 262.697 2.95455H263.341C263.348 3.14535 263.354 3.32957 263.368 3.5138H264.078C263.94 3.39537 263.743 3.2572 263.572 3.16509L263.881 2.85586H260.703V7.06664ZM259.96 2.15187H265.572V8.04038H264.795V7.76405H260.703V8.04038H259.96V2.15187ZM270.329 2.67822L269.954 3.01377C269.875 2.93481 269.763 2.8427 269.638 2.74401C269.46 2.86902 269.282 2.98087 269.111 3.07298C269.026 2.98087 268.822 2.80323 268.697 2.7177C268.875 2.64532 269.046 2.55979 269.21 2.45452C269.092 2.38215 268.973 2.31636 268.861 2.25714L269.223 1.95449C269.342 2.01371 269.473 2.08608 269.605 2.16503C269.69 2.08608 269.769 2.00055 269.835 1.91502L270.342 2.06634C270.25 2.19135 270.138 2.31636 270.013 2.4282C270.138 2.52032 270.25 2.60585 270.329 2.67822ZM270.875 5.0402L271.309 5.43496C270.98 5.69814 270.572 5.96789 270.171 6.19817H272.48V6.81005H269.993V7.29034C269.993 7.6522 269.921 7.81669 269.651 7.91538C269.381 8.02064 269.019 8.02064 268.526 8.02064C268.486 7.81669 268.375 7.54693 268.276 7.36271C268.598 7.37587 268.986 7.37587 269.092 7.37587C269.197 7.36929 269.23 7.34297 269.23 7.26402V6.81005H266.749V6.19817H269.23V5.89552H269.625C269.763 5.81657 269.901 5.72445 270.033 5.62576H267.914V5.07968H270.71L270.875 5.0402ZM271.993 4.23094H272.493V5.57971H271.717V4.79677H267.493V5.57971H266.749V4.23094H267.256L267.131 2.16503L267.559 2.25056C267.868 2.15187 268.217 2.00713 268.453 1.90186L268.815 2.32951C268.539 2.4611 268.19 2.57295 267.888 2.6519L267.894 2.80323H268.763V3.2901H267.921L267.934 3.5138H268.782V3.83618C268.94 3.75723 269.092 3.6717 269.236 3.57959C269.118 3.50722 268.993 3.43484 268.881 3.36905L269.243 3.07298C269.361 3.13219 269.493 3.20457 269.625 3.28352C269.717 3.19799 269.802 3.10588 269.868 3.01377L270.375 3.16509C270.283 3.29668 270.171 3.42826 270.039 3.54669C270.177 3.64538 270.302 3.74407 270.394 3.8296L270 4.15857C269.921 4.07304 269.802 3.97435 269.664 3.86908C269.48 4.00725 269.289 4.12567 269.111 4.22436C269.039 4.15199 268.901 4.02698 268.782 3.94145V4.00067H267.96L267.973 4.23094H271.256L271.276 4.00067H270.493V3.5138H271.322L271.335 3.2901H270.513V2.80323H271.368L271.381 2.57953H270.487V2.08608H272.144C272.112 2.78349 272.059 3.61907 271.993 4.23094ZM277.796 3.11904V2.69138H275.138V3.11904H277.796ZM278.632 2.0795V3.72433H274.349V2.0795H278.632ZM274.829 6.06V6.34949H278.053V6.06H274.829ZM274.829 5.27706V5.55997H278.053V5.27706H274.829ZM274.829 4.5007V4.78361H278.053V4.5007H274.829ZM278.862 6.88242H277.822C278.434 7.06664 279.105 7.3035 279.559 7.48114L278.869 8.0338C278.362 7.79695 277.454 7.47456 276.757 7.2706L277.303 6.88242H275.52L276.02 7.23112C275.487 7.54035 274.645 7.85616 273.98 8.02064C273.835 7.85616 273.566 7.61273 273.388 7.4614C273.954 7.33639 274.625 7.10612 275.072 6.88242H274.052V3.96777H278.862V6.88242ZM282.112 5.8692H283.25V4.86914H282.112V5.8692ZM286.31 5.8692V6.61925H284.06V8.02722H283.25V6.61925H280.29V5.8692H281.329V4.14541H283.25V3.35589H281.842C281.573 3.82303 281.257 4.2441 280.948 4.55333C280.796 4.42175 280.461 4.15857 280.27 4.04672C280.862 3.54669 281.369 2.70454 281.652 1.8558L282.448 2.05976C282.389 2.24398 282.316 2.42162 282.231 2.59927H285.948V3.35589H284.06V4.14541H285.797V4.86914H284.06V5.8692H286.31ZM288.343 3.16509V4.3099C288.343 5.37575 288.244 6.98769 287.645 8.00091C287.514 7.86932 287.185 7.6522 287.007 7.57325C287.553 6.63898 287.593 5.27048 287.593 4.3099V2.46768H289.935V1.88212H290.751V2.46768H293.087V3.16509H288.343ZM291.33 4.33621H290.132V4.77045H291.33V4.33621ZM292.106 5.36259H289.396V4.33621H288.507V3.71776H289.396V3.28352H290.132V3.71776H291.33V3.28352H292.106V3.71776H293.054V4.33621H292.106V5.36259ZM291.573 6.23764H290.014C290.211 6.44818 290.475 6.62582 290.784 6.77715C291.086 6.6324 291.356 6.44818 291.573 6.23764ZM292.238 5.59287L292.725 5.8363C292.461 6.36265 292.073 6.77057 291.6 7.08638C292.08 7.22454 292.626 7.31666 293.218 7.36929C293.06 7.53377 292.856 7.83642 292.758 8.04038C292.001 7.94827 291.33 7.77721 290.757 7.52061C290.113 7.77721 289.376 7.93511 288.593 8.0338C288.534 7.83642 288.395 7.54035 288.277 7.37587C288.882 7.32323 289.461 7.23112 289.981 7.0798C289.692 6.87584 289.435 6.6324 289.224 6.34949L289.534 6.23764H288.553V5.62576H292.1L292.238 5.59287ZM298.857 3.97435L299.64 4.16515C299.37 5.02047 298.982 5.78367 298.508 6.42186C298.699 6.89558 298.909 7.17191 299.12 7.17191C299.278 7.17191 299.357 6.84294 299.39 6.02053C299.567 6.20475 299.844 6.37581 300.054 6.46134C299.929 7.67852 299.666 7.96801 299.054 7.96801C298.593 7.96801 298.232 7.63904 297.942 7.09954C297.607 7.44824 297.238 7.74431 296.83 7.99433C296.712 7.82326 296.429 7.50088 296.264 7.34955C296.771 7.07322 297.225 6.71136 297.607 6.2837C297.383 5.54023 297.238 4.61913 297.153 3.63222H295.245V4.33621H296.87C296.87 4.33621 296.863 4.54017 296.863 4.63228C296.843 6.01395 296.804 6.59951 296.653 6.79031C296.528 6.96137 296.396 7.02058 296.199 7.05348C296.027 7.0798 295.745 7.0798 295.442 7.07322C295.429 6.84294 295.343 6.54029 295.225 6.34291C295.462 6.36265 295.685 6.36923 295.791 6.36923C295.883 6.36923 295.935 6.35607 295.988 6.29028C296.054 6.19817 296.08 5.88236 296.1 5.05336H295.245C295.218 6.01395 295.08 7.29692 294.541 8.0996C294.402 7.94827 294.054 7.65878 293.876 7.56667C294.376 6.77715 294.422 5.63234 294.422 4.77703V2.85586H297.107C297.093 2.53347 297.08 2.21109 297.08 1.88212H297.903C297.896 2.21109 297.903 2.53347 297.916 2.85586H298.922C298.679 2.65848 298.35 2.44794 298.08 2.28346L298.554 1.81633C298.916 2.00055 299.396 2.3032 299.626 2.52032L299.311 2.85586H299.995V3.63222H297.962C298.021 4.29016 298.113 4.90862 298.225 5.43496C298.482 4.99415 298.699 4.50728 298.857 3.97435ZM302.363 4.277H303.423V3.85592H302.363V4.277ZM302.363 2.82954V3.25062H303.423V2.82954H302.363ZM305.298 3.25062V2.82954H304.252V3.25062H305.298ZM305.298 4.277V3.85592H304.252V4.277H305.298ZM306.765 6.03368H304.824C305.403 6.50082 306.206 6.92189 306.956 7.13901C306.778 7.29692 306.541 7.60615 306.429 7.80353C305.666 7.51404 304.864 7.00085 304.252 6.40213V8.02064H303.423V6.43502C302.817 7.04032 302.015 7.55351 301.232 7.843C301.113 7.65878 300.876 7.35613 300.699 7.19165C301.482 6.96137 302.298 6.52713 302.85 6.03368H300.903V5.31654H303.423V4.92835H301.541V2.17819H306.16V4.92835H304.252V5.31654H306.765V6.03368ZM310.384 6.13237V7.0469C310.719 7.00085 311.074 6.95479 311.423 6.90216C311.246 6.67846 311.088 6.42186 310.963 6.13237H310.384ZM310.713 5.02704V5.47444H311.693V5.02704H310.713ZM310.713 3.94145V4.37569H311.693V3.94145H310.713ZM309.035 2.81639V3.27694H312.515V2.81639H309.035ZM312.732 6.13237H311.699C311.805 6.29686 311.923 6.4416 312.061 6.57977C312.292 6.4416 312.542 6.27712 312.732 6.13237ZM312.963 6.13237L313.43 6.44818C313.16 6.63898 312.851 6.8232 312.575 6.96795C312.897 7.15875 313.285 7.29692 313.733 7.38245C313.575 7.53377 313.371 7.82326 313.272 8.02722C312.522 7.843 311.956 7.50746 311.528 7.02716L311.555 7.56009C310.699 7.69826 309.785 7.82326 309.101 7.92853L308.995 7.21797C309.193 7.19823 309.423 7.17191 309.666 7.13901V6.13237H308.989V5.47444H309.995V5.02704H309.166V4.37569H309.995V3.94145H309.035V4.09936C309.035 5.25074 308.93 6.96137 308.239 8.04038C308.081 7.91538 307.739 7.71142 307.541 7.63904C308.193 6.62582 308.245 5.14547 308.245 4.09936V2.15845H313.311V3.94145H312.417V4.37569H313.364V5.02704H312.417V5.47444H313.654V6.13237H312.963Z" fill="#DDDDDD"/>
</svg>
