<svg width="100%"  viewBox="0 0 420 13" fill="none" xmlns="http://www.w3.org/2000/svg">
<path d="M0.853558 0.664117L1.20258 0.771995C1.13277 0.971888 1.05028 1.17495 0.955091 1.37485V3.62443H0.596553V1.99991C0.526749 2.09827 0.456946 2.19028 0.383969 2.27278C0.355413 2.18076 0.263399 1.95866 0.206287 1.86347C0.469637 1.57474 0.710777 1.12101 0.853558 0.664117ZM2.34799 2.67573V2.34258H2.02436V2.67573H2.34799ZM2.7097 1.80953H2.32578V2.0824H2.63038V2.93274H1.75149V2.0824H2.03388V1.80953H1.66899V1.53666H2.03388V1.21303H2.32578V1.53666H2.7097V1.80953ZM1.58967 3.10725H2.78268V1.1464H1.58967V3.10725ZM1.247 0.819588H3.14122V3.58953H2.78268V3.43406H1.58967V3.61808H1.247V0.819588ZM4.08039 1.13688V1.57157H4.6769V1.13688H4.08039ZM4.40403 2.16807H5.07034C5.07034 2.16807 5.06717 2.26008 5.06717 2.3045C5.03544 3.06917 5.00371 3.37377 4.91487 3.48165C4.85141 3.5578 4.77843 3.58636 4.6769 3.59905C4.59123 3.61174 4.44528 3.61491 4.29298 3.60857C4.28981 3.51021 4.25173 3.37377 4.19779 3.28176C4.32471 3.29762 4.45162 3.29762 4.50874 3.29762C4.55633 3.29762 4.58489 3.29128 4.61344 3.25637C4.66103 3.20243 4.68959 2.99937 4.7118 2.49805H4.35961C4.28663 2.93274 4.13751 3.33887 3.80118 3.62443C3.74724 3.52924 3.63936 3.41185 3.55052 3.34839C3.96617 3.00571 4.02963 2.43459 4.05501 1.90789H3.73772V0.803724H5.04178V1.90789H4.42307C4.41672 1.99356 4.41038 2.0824 4.40403 2.16807ZM5.64781 1.04169V2.82803H5.27975V1.04169H5.64781ZM6.02538 0.721229H6.39978V3.16436C6.39978 3.38646 6.35536 3.49117 6.22527 3.55145C6.09518 3.61174 5.8826 3.62443 5.59387 3.62443C5.578 3.51338 5.52089 3.33887 5.46378 3.23416C5.67002 3.24051 5.87308 3.24051 5.93971 3.24051C6 3.24051 6.02538 3.22147 6.02538 3.16436V0.721229ZM6.98994 2.51392L7.30089 2.56785C7.26916 2.86611 7.20253 3.1834 7.11051 3.38646C7.04388 3.34521 6.90427 3.27858 6.82178 3.25003C6.91379 3.06283 6.96456 2.78044 6.98994 2.51392ZM7.87201 2.30768L7.69115 2.32037V3.62443H7.358V2.34575L6.88841 2.37748L6.85668 2.0475L7.09147 2.03798C7.13907 1.9777 7.18983 1.91107 7.23743 1.84126C7.14541 1.70483 6.98994 1.53349 6.85668 1.40657L7.03436 1.1464C7.05975 1.16861 7.08513 1.19082 7.11051 1.21303C7.19935 1.03852 7.28819 0.825934 7.34213 0.660944L7.67529 0.778341C7.56106 0.997271 7.43097 1.24158 7.31675 1.41927C7.358 1.46369 7.39607 1.51128 7.4278 1.55253C7.54203 1.37485 7.64356 1.19082 7.71971 1.03217L8.04017 1.16543C7.86249 1.44465 7.64039 1.76828 7.43415 2.02529L7.75461 2.0126C7.71971 1.93645 7.68163 1.8603 7.64356 1.79367L7.91008 1.67627C8.037 1.88885 8.16391 2.1649 8.20199 2.34575L7.91643 2.47901C7.90691 2.42825 7.89104 2.37114 7.87201 2.30768ZM7.6975 2.58372L7.97671 2.49488C8.06238 2.68208 8.14488 2.92957 8.18295 3.09138L7.8847 3.19609C7.85932 3.03427 7.77682 2.77727 7.6975 2.58372ZM8.64302 2.7265V3.19609H9.24904V2.7265H8.64302ZM9.24904 1.15592H8.64302V1.59695H9.24904V1.15592ZM9.24904 2.387V1.93328H8.64302V2.387H9.24904ZM9.62979 3.19609H9.84238V3.53559H7.98623V3.19609H8.27814V0.816416H9.62979V3.19609ZM11.4383 3.15484H12.514V2.53613H11.4383V3.15484ZM11.9968 1.2987H11.2067C11.156 1.35264 11.1052 1.40657 11.0513 1.46051C11.2194 1.58426 11.4225 1.7429 11.5557 1.87934C11.7334 1.70483 11.8825 1.50811 11.9968 1.2987ZM12.9074 2.19345V3.62126H12.514V3.49434H11.4383V3.61808H11.0608V2.71698C10.8387 2.8439 10.6007 2.94543 10.3596 3.02793C10.3151 2.92322 10.22 2.76775 10.1406 2.6916C10.5372 2.57737 10.9212 2.387 11.2511 2.14269C11.1242 2.00308 10.9339 1.83809 10.7657 1.70483C10.6578 1.7905 10.5404 1.86982 10.4135 1.94597C10.3564 1.85395 10.2326 1.71435 10.147 1.65089C10.6673 1.37485 11.0163 0.987752 11.2004 0.641906L11.6255 0.721229C11.578 0.803724 11.524 0.886219 11.4669 0.968715H12.1871L12.2506 0.949677L12.5108 1.08611C12.349 1.5208 12.092 1.89203 11.7747 2.19345H12.9074ZM16.1776 2.81217L15.8857 2.81851C15.8413 2.96129 15.781 3.07869 15.6985 3.17705C15.7969 3.22782 15.8889 3.27541 15.965 3.31983C16.2062 3.18974 16.387 3.01206 16.5235 2.79313C16.4473 2.6091 16.3838 2.39969 16.3331 2.17759C16.295 2.25374 16.2538 2.32354 16.2093 2.387C16.1776 2.33941 16.1078 2.26643 16.0412 2.1998V2.43459H15.3368L15.3653 2.44094L15.3019 2.55834C15.5875 2.55516 15.892 2.54882 16.1871 2.54564L16.1776 2.81217ZM15.1432 2.83438L15.0893 2.92322C15.194 2.95812 15.2987 2.99937 15.4034 3.04379C15.4605 2.9835 15.5081 2.91053 15.5462 2.82803L15.1432 2.83438ZM14.8799 2.07606V2.20932H15.1306V2.07606H14.8799ZM15.7144 2.07606H15.451V2.20932H15.7144V2.07606ZM16.8756 1.58426H16.5615L16.5552 1.60329C16.5964 1.86664 16.6504 2.12048 16.7265 2.34893C16.7963 2.12365 16.8439 1.86982 16.8756 1.58426ZM14.9434 1.51128H15.1306V1.39388H14.9434V1.51128ZM15.1306 1.05121H14.9434V1.16543H15.1306V1.05121ZM15.6509 1.05121H15.451V1.16543H15.6509V1.05121ZM15.451 1.51128H15.6509V1.39388H15.451V1.51128ZM17.396 1.58426H17.2278C17.1676 2.06019 17.0755 2.46315 16.9169 2.7963C17.0438 3.02158 17.2056 3.20243 17.4119 3.32618C17.3294 3.39598 17.2215 3.53242 17.1676 3.6276C16.9804 3.50386 16.8281 3.34204 16.7043 3.1485C16.5615 3.33887 16.3838 3.50069 16.1649 3.63395C16.1395 3.57049 16.0634 3.45309 16.0031 3.3706L15.7842 3.58636C15.6985 3.5229 15.5811 3.45309 15.451 3.38329C15.2511 3.50069 14.9878 3.57684 14.6483 3.63395C14.6261 3.53559 14.569 3.41819 14.515 3.34521C14.7593 3.323 14.9592 3.2881 15.1147 3.22464C15.0576 3.20243 15.0005 3.17705 14.9434 3.15484L14.918 3.19609L14.6165 3.12311C14.6705 3.04379 14.7308 2.94543 14.7942 2.84072L14.4547 2.8439L14.442 2.56468C14.588 2.56468 14.7625 2.56468 14.9497 2.56151C14.9751 2.51709 14.9973 2.47584 15.0195 2.43459H14.569V1.84761H15.1306V1.74925H14.6324V1.41292H14.4325V1.1464H14.6324V0.813243H15.1306V0.657771H15.451V0.813243H15.9777V1.1464H16.184V1.41292H15.9777V1.74925H15.451V1.84761H16.0412V1.94914C16.222 1.61281 16.3236 1.14322 16.3807 0.657771L16.7392 0.705364C16.717 0.886219 16.6853 1.0639 16.6504 1.23524H17.396V1.58426ZM18.7223 1.22889H19.4679V0.699018H19.8487V1.22889H20.6419V1.58743H18.7223V1.22889ZM19.506 2.95178L19.1316 3.0311C19.1221 2.72333 19.0427 2.19663 18.9412 1.7905L19.2807 1.73021C19.3886 2.13 19.4838 2.64083 19.506 2.95178ZM18.4399 0.664117L18.7921 0.781514C18.7096 0.984579 18.608 1.19399 18.4938 1.39388V3.61174H18.1353V1.93328C18.0496 2.04433 17.964 2.14269 17.8751 2.23153C17.8402 2.13951 17.7387 1.9301 17.6752 1.83809C17.9766 1.55887 18.2685 1.11467 18.4399 0.664117ZM20.0644 3.13263H20.7085V3.488H18.6588V3.13263H19.6995C19.8233 2.74554 19.9534 2.15855 20.0041 1.71117L20.4166 1.7778C20.3246 2.23787 20.1882 2.7614 20.0644 3.13263ZM22.0189 2.96447V3.12628C22.1998 3.11359 22.387 3.09773 22.571 3.08186C22.8185 2.73919 22.8946 2.28547 22.9168 1.71752H22.6281V1.47003H22.0189V1.59378H22.5805V2.5742H22.0189V2.69794H22.5932V2.96447H22.0189ZM21.4288 2.33941H21.6762V2.19663H21.4288V2.33941ZM22.2664 2.19663H22.0189V2.33941H22.2664V2.19663ZM22.0189 1.97135H22.2664V1.83174H22.0189V1.97135ZM21.4288 1.83174V1.97135H21.6762V1.83174H21.4288ZM23.2849 1.37167H23.929C23.929 1.37167 23.9258 1.49542 23.9258 1.53984C23.8973 2.83755 23.8719 3.29762 23.7704 3.44357C23.6974 3.54828 23.6244 3.58001 23.5197 3.60222C23.4245 3.62126 23.2786 3.61808 23.1263 3.61491C23.1199 3.51021 23.0787 3.35791 23.0152 3.2532C23.1548 3.26589 23.2754 3.26907 23.3357 3.26907C23.3833 3.26907 23.415 3.25637 23.4435 3.21513C23.5102 3.12946 23.5419 2.74236 23.5609 1.71752H23.2754C23.2341 2.56785 23.0882 3.22147 22.5551 3.64347C22.5075 3.56732 22.4155 3.46261 22.333 3.39281C21.8761 3.4404 21.4192 3.488 21.0766 3.51655L21.0321 3.19926C21.2098 3.18657 21.4319 3.17071 21.6762 3.15484V2.96447H21.1178V2.69794H21.6762V2.5742H21.1305V1.59378H21.6762V1.47003H21.0512V1.19716H21.6762V1.07025C21.4922 1.08294 21.3114 1.09246 21.14 1.09563C21.1273 1.01948 21.0924 0.902084 21.0575 0.829107C21.5271 0.803724 22.076 0.749785 22.425 0.673635L22.59 0.956023C22.4219 0.990925 22.2252 1.01948 22.0189 1.04169V1.19716H22.6281V1.37167H22.9264C22.9295 1.16226 22.9295 0.943331 22.9295 0.708537H23.2912C23.2912 0.940159 23.2912 1.16226 23.2849 1.37167ZM24.3764 3.53559V3.2881H27.2574V3.53559H24.3764ZM26.5403 2.71381V2.60276H25.9755V2.71381H26.5403ZM26.5403 3.00571V2.88832H25.9755V3.00571H26.5403ZM25.1061 2.88832V3.00571H25.6297V2.88832H25.1061ZM25.1061 2.60276V2.71381H25.6297V2.60276H25.1061ZM24.7349 2.4219H26.9242V3.18657H24.7349V2.4219ZM25.985 1.35264V1.46686H26.5435V1.35264H25.985ZM25.985 1.04486V1.14957H26.5435V1.04486H25.985ZM25.985 2.08557H27.2605V2.3172H24.3796V2.08557H25.6043V1.97452H24.6048V1.77463H25.6043V1.66358H24.7032V1.46686H25.6043V1.35264H24.3891V1.14957H25.6043V1.04486H24.7191V0.844972H25.6043V0.657771H25.985V0.844972H26.921V1.14957H27.2383V1.35264H26.921V1.66358H25.985V1.77463H27.0448V1.97452H25.985V2.08557ZM28.719 3.34521V0.724402H29.7661C30.4705 0.724402 30.8322 1.06707 30.8322 1.83174V2.23787C30.8322 2.9962 30.4641 3.34521 29.7661 3.34521H28.719ZM29.214 2.92639H29.7724C30.1532 2.92639 30.3245 2.72333 30.3245 2.27595V1.79367C30.3245 1.34629 30.1532 1.14322 29.7693 1.14322H29.214V2.92639ZM31.2837 1.28283H31.7628V3.34521H31.2837V1.28283ZM31.2361 0.914775C31.2361 0.781514 31.3281 0.692673 31.5248 0.692673C31.7215 0.692673 31.8136 0.781514 31.8136 0.914775C31.8136 1.03852 31.7215 1.13053 31.5248 1.13053C31.3281 1.13053 31.2361 1.03852 31.2361 0.914775ZM33.6108 3.30714V3.09138C33.5156 3.23416 33.3348 3.37694 33.0206 3.37694C32.513 3.37694 32.2084 3.02158 32.2084 2.5044V2.10461C32.2084 1.61916 32.5098 1.2511 33.0143 1.2511C33.3189 1.2511 33.5029 1.38436 33.6108 1.5208V1.28283H34.0867V3.34204C34.0867 3.8148 33.9408 4.06229 33.4077 4.06229H32.3194V3.64981H33.3221C33.5537 3.64981 33.6108 3.55463 33.6108 3.30714ZM32.7002 2.48219C32.7002 2.73919 32.8303 2.96764 33.1539 2.96764C33.4712 2.96764 33.6108 2.74236 33.6108 2.48219V2.14269C33.6108 1.88251 33.4744 1.66041 33.1539 1.66041C32.8303 1.66041 32.7002 1.88568 32.7002 2.14586V2.48219ZM34.5989 1.28283H35.078V3.34521H34.5989V1.28283ZM34.5513 0.914775C34.5513 0.781514 34.6433 0.692673 34.84 0.692673C35.0367 0.692673 35.1287 0.781514 35.1287 0.914775C35.1287 1.03852 35.0367 1.13053 34.84 1.13053C34.6433 1.13053 34.5513 1.03852 34.5513 0.914775ZM36.9799 1.28283V1.69531H36.3802V2.64718C36.3802 2.87245 36.4342 2.93274 36.5738 2.93274H36.9799V3.34521H36.45C36.0249 3.34521 35.9075 3.13263 35.9075 2.74236V1.69531H35.4284V1.28283H35.6473C35.8916 1.26379 35.9582 1.07342 35.9519 0.724402H36.4278C36.4278 1.00044 36.3802 1.24158 36.2216 1.28283H36.9799ZM38.6531 3.34521V3.0311C38.4912 3.28176 38.2215 3.37694 37.9265 3.37694C37.5425 3.37694 37.3109 3.19926 37.3109 2.83438C37.3109 2.43459 37.6568 2.28547 37.9645 2.20297L38.1898 2.14586C38.4659 2.07606 38.6404 2.02846 38.6404 1.86982V1.85395C38.6404 1.74607 38.5483 1.65089 38.2818 1.65089C37.9772 1.65089 37.8567 1.76511 37.8567 1.95866V2.05702H37.3775V1.99673C37.3775 1.51128 37.6853 1.2511 38.2755 1.2511C38.9069 1.2511 39.1163 1.52397 39.1163 1.94597V3.34521H38.6531ZM37.79 2.77727C37.79 2.91687 37.882 2.97716 38.0756 2.97716C38.3738 2.97716 38.5991 2.809 38.6404 2.52343V2.28229C38.5928 2.39652 38.4468 2.42825 38.2691 2.48536L38.0661 2.5393C37.882 2.59324 37.79 2.65352 37.79 2.77727ZM39.615 0.724402H40.0941V3.34521H39.615V0.724402ZM41.3146 3.34521L42.1332 0.724402H42.8091L43.6309 3.34521H43.1073L42.9804 2.91053H41.9619L41.835 3.34521H41.3146ZM42.0857 2.47901H42.8567L42.495 1.23841L42.4727 1.17178L42.4474 1.23841L42.0857 2.47901ZM44.4378 1.28283V1.59695C44.5616 1.39706 44.7678 1.2511 45.0629 1.2511C45.4944 1.2511 45.7324 1.56522 45.7324 2.04433V3.34521H45.2564V2.09827C45.2564 1.81271 45.1359 1.65723 44.8662 1.65723C44.5076 1.65723 44.4378 1.9301 44.4378 2.11413V3.34521H43.9619V1.28283H44.4378ZM46.2268 1.28283H46.7059V3.34521H46.2268V1.28283ZM46.1792 0.914775C46.1792 0.781514 46.2712 0.692673 46.4679 0.692673C46.6646 0.692673 46.7567 0.781514 46.7567 0.914775C46.7567 1.03852 46.6646 1.13053 46.4679 1.13053C46.2712 1.13053 46.1792 1.03852 46.1792 0.914775ZM49.5946 2.07288C49.5946 1.85078 49.5248 1.65723 49.2551 1.65723C48.9347 1.65723 48.8839 1.92058 48.8839 2.07606V3.34521H48.408V2.07288C48.408 1.85078 48.3381 1.65723 48.0685 1.65723C47.7512 1.65723 47.7004 1.92058 47.7004 2.07606V3.34521H47.2213V1.28283H47.7004V1.5208C47.8178 1.33994 47.9891 1.2511 48.2239 1.2511C48.5222 1.2511 48.7062 1.38754 48.7982 1.58426C48.9156 1.39071 49.1092 1.2511 49.4011 1.2511C49.8453 1.2511 50.0705 1.56205 50.0705 1.99356V3.34521H49.5946V2.07288ZM51.824 3.34521V3.0311C51.6622 3.28176 51.3925 3.37694 51.0975 3.37694C50.7135 3.37694 50.4819 3.19926 50.4819 2.83438C50.4819 2.43459 50.8278 2.28547 51.1355 2.20297L51.3608 2.14586C51.6368 2.07606 51.8114 2.02846 51.8114 1.86982V1.85395C51.8114 1.74607 51.7193 1.65089 51.4528 1.65089C51.1482 1.65089 51.0276 1.76511 51.0276 1.95866V2.05702H50.5485V1.99673C50.5485 1.51128 50.8563 1.2511 51.4465 1.2511C52.0779 1.2511 52.2873 1.52397 52.2873 1.94597V3.34521H51.824ZM50.961 2.77727C50.961 2.91687 51.053 2.97716 51.2466 2.97716C51.5448 2.97716 51.7701 2.809 51.8114 2.52343V2.28229C51.7638 2.39652 51.6178 2.42825 51.4401 2.48536L51.2371 2.5393C51.053 2.59324 50.961 2.65352 50.961 2.77727ZM54.1509 1.28283V1.69531H53.5512V2.64718C53.5512 2.87245 53.6051 2.93274 53.7447 2.93274H54.1509V3.34521H53.621C53.1958 3.34521 53.0784 3.13263 53.0784 2.74236V1.69531H52.5993V1.28283H52.8183C53.0626 1.26379 53.1292 1.07342 53.1229 0.724402H53.5988C53.5988 1.00044 53.5512 1.24158 53.3925 1.28283H54.1509ZM54.5892 1.28283H55.0683V3.34521H54.5892V1.28283ZM54.5416 0.914775C54.5416 0.781514 54.6336 0.692673 54.8304 0.692673C55.0271 0.692673 55.1191 0.781514 55.1191 0.914775C55.1191 1.03852 55.0271 1.13053 54.8304 1.13053C54.6336 1.13053 54.5416 1.03852 54.5416 0.914775ZM56.4404 3.37694C55.8185 3.37694 55.5108 3.01523 55.5108 2.43142V2.19663C55.5108 1.61281 55.8185 1.2511 56.4404 1.2511C57.0655 1.2511 57.3701 1.61281 57.3701 2.19663V2.43142C57.3701 3.01523 57.0655 3.37694 56.4404 3.37694ZM55.9994 2.47267C55.9994 2.77092 56.1104 2.96764 56.4404 2.96764C56.7704 2.96764 56.8814 2.77092 56.8814 2.47267V2.15538C56.8814 1.8603 56.7704 1.66041 56.4404 1.66041C56.1104 1.66041 55.9994 1.8603 55.9994 2.15538V2.47267ZM58.2874 1.28283V1.59695C58.4111 1.39706 58.6174 1.2511 58.9124 1.2511C59.344 1.2511 59.5819 1.56522 59.5819 2.04433V3.34521H59.106V2.09827C59.106 1.81271 58.9854 1.65723 58.7157 1.65723C58.3572 1.65723 58.2874 1.9301 58.2874 2.11413V3.34521H57.8115V1.28283H58.2874ZM62.6376 0.724402L60.994 3.34521H60.8195L62.463 0.724402H62.6376ZM65.1436 2.41556L64.9151 2.72967C64.8517 2.63766 64.747 2.5044 64.6423 2.38383V3.62126H64.271V2.54564C64.1568 2.6567 64.0362 2.75188 63.9188 2.83121C63.8871 2.72967 63.8014 2.54564 63.7475 2.47267C64.0711 2.28229 64.3821 1.94914 64.5788 1.58426H63.8649V1.24476H64.271V0.660944H64.6423V1.24476H64.7723L64.8358 1.22889L65.0452 1.36533C64.9627 1.5906 64.8485 1.80953 64.7152 2.0126C64.8548 2.13317 65.0833 2.3521 65.1436 2.41556ZM65.518 2.09509V2.30768H66.2128V2.09509H65.518ZM65.518 1.60329V1.81588H66.2128V1.60329H65.518ZM65.518 1.11149V1.32091H66.2128V1.11149H65.518ZM66.2953 3.27541H66.4159C66.4698 3.27541 66.4825 3.23416 66.4889 2.92322C66.5555 2.97716 66.6983 3.03427 66.7903 3.05648C66.7586 3.48482 66.6729 3.5927 66.4572 3.5927H66.235C65.959 3.5927 65.8987 3.49117 65.8987 3.1834V2.60593H65.7401C65.6893 3.05965 65.5497 3.41185 65.0262 3.62126C64.9913 3.53242 64.8897 3.39598 64.8136 3.32935C65.2419 3.18022 65.3403 2.92957 65.3815 2.60593H65.1753V0.813243H66.5745V2.60593H66.2414V3.17705C66.2414 3.26589 66.2477 3.27541 66.2953 3.27541ZM68.4339 1.66675H68.7607C68.7226 1.62868 68.6718 1.58426 68.6147 1.53984C68.5544 1.58743 68.4942 1.62868 68.4339 1.66675ZM67.5328 1.90472V2.14269H67.2028V1.66675H67.5264L67.482 0.791032L67.7041 0.838626C67.8342 0.781514 67.9801 0.708537 68.0753 0.657771L68.272 0.813243C68.1356 0.889392 67.9611 0.956023 67.8183 1.00044L67.8247 1.07342H68.1673V1.27331H67.8342L67.8405 1.3685H68.1737V1.56839H67.8501L67.8564 1.66675H68.3228C68.2847 1.62868 68.234 1.58426 68.1991 1.5557C68.2847 1.51763 68.3672 1.47003 68.4434 1.41927C68.3926 1.38436 68.3387 1.35264 68.2911 1.32408L68.4307 1.20034C68.4846 1.22889 68.5417 1.26062 68.5989 1.29552C68.6465 1.2511 68.6877 1.20351 68.7226 1.15592L68.7353 1.15909C68.7004 1.12419 68.6528 1.08611 68.5989 1.04486C68.5195 1.10515 68.437 1.15592 68.3577 1.19716C68.326 1.15909 68.2498 1.08294 68.2022 1.04804C68.2816 1.01314 68.3577 0.97506 68.4275 0.927467C68.3831 0.902084 68.3387 0.873528 68.2974 0.851317L68.4339 0.727574C68.4815 0.752958 68.5322 0.781514 68.5862 0.81007C68.6338 0.768822 68.675 0.724402 68.7067 0.679981L68.9066 0.737093C68.8622 0.800551 68.8083 0.860836 68.748 0.917948C68.8019 0.956023 68.8463 0.990925 68.8812 1.02265L68.7385 1.16226L68.9288 1.21303C68.8844 1.27966 68.8273 1.34629 68.7638 1.40975C68.8273 1.45417 68.8812 1.49859 68.9225 1.53984L68.7797 1.66675H69.3096L69.3159 1.56839H68.9986V1.3685H69.3318L69.3381 1.27331H69.0082V1.07342H69.3477L69.3508 0.97506H68.9669V0.75613H69.6903C69.684 1.05121 69.6681 1.40657 69.6427 1.66675H69.9695V2.14269H69.6205V1.90472H67.5328ZM68.015 2.77092V2.8788H69.116V2.77092H68.015ZM68.015 2.48219V2.58372H69.116V2.48219H68.015ZM68.015 2.19663V2.29816H69.116V2.19663H68.015ZM69.2334 3.29762H69.6174C69.7157 3.29762 69.7379 3.26589 69.7506 3.05014C69.8236 3.09773 69.9695 3.14532 70.0616 3.16436C70.0235 3.49434 69.9315 3.58001 69.6554 3.58001H69.1858C68.8083 3.58001 68.7163 3.49751 68.7163 3.21513V3.07235H68.3641C68.2689 3.38964 68.0214 3.54193 67.2599 3.62126C67.2345 3.53559 67.1615 3.4055 67.1012 3.3357C67.7041 3.30079 67.904 3.23099 67.9865 3.07235H67.6597V1.99991H69.4904V3.07235H69.0811V3.21195C69.0811 3.29128 69.1065 3.29762 69.2334 3.29762ZM72.5174 2.13951V2.26008L72.822 2.25691C72.7839 2.21884 72.7458 2.18393 72.7109 2.15221L72.7363 2.13951H72.5174ZM71.7971 1.9301H72.1525V1.80001H71.7971V1.9301ZM71.7971 1.47321V1.60329H72.1525V1.47321H71.7971ZM72.8791 1.47321H72.5174V1.60329H72.8791V1.47321ZM72.8791 1.9301V1.80001H72.5174V1.9301H72.8791ZM72.9616 2.51709V2.66304H73.3645V2.9486H72.9616V3.27541C72.9616 3.44357 72.9299 3.52924 72.8061 3.57684C72.6855 3.62443 72.5174 3.62443 72.2889 3.62443C72.2731 3.52924 72.2287 3.40233 72.1842 3.31031C72.3302 3.31666 72.492 3.31666 72.5364 3.31666C72.584 3.31349 72.5999 3.30079 72.5999 3.26589V2.9486H71.8923C72.0129 3.06283 72.1398 3.19609 72.2064 3.29445L71.9082 3.48482C71.8352 3.36425 71.6766 3.18022 71.537 3.05014L71.6988 2.9486H71.2577V2.66304H72.5999V2.52661C72.1398 2.5393 71.6924 2.54882 71.3561 2.55516L71.3244 2.27278C71.5497 2.27278 71.8384 2.2696 72.1525 2.26643V2.13951H71.4513V1.26697H72.1525V1.1464H71.3244V0.997271C71.2609 1.14322 71.1879 1.29235 71.1086 1.43513V3.61491H70.7501V1.99356C70.6803 2.08557 70.6073 2.17124 70.5343 2.24739C70.4994 2.15538 70.3979 1.94597 70.3344 1.85713C70.62 1.57157 70.8929 1.12101 71.0547 0.667289L71.4132 0.781514L71.3783 0.873528H72.1525V0.679981H72.5174V0.873528H73.3328V1.1464H72.5174V1.26697H73.2408V2.13951H73.1012C73.2186 2.25057 73.336 2.37431 73.4026 2.4695L73.1329 2.61862C73.1139 2.58689 73.0853 2.55199 73.0568 2.51392L72.9616 2.51709ZM75.8394 1.79684L75.7664 1.7778C75.7982 1.708 75.8331 1.61916 75.8616 1.53984H75.281C75.3222 1.61916 75.3571 1.71117 75.373 1.7778L75.2873 1.79684H75.8394ZM74.9224 1.54935L74.9669 1.53984H74.5544V1.26697H75.3889V1.10515H74.7638V0.844972H75.3889V0.657771H75.7633V0.844972H76.42V1.10515H75.7633V1.26697H76.6136V1.53984H76.1757L76.2551 1.55887C76.2011 1.64771 76.1535 1.73021 76.1091 1.79684H76.5819V2.06336H75.7633V2.20614H76.4613V2.46632H75.7633V2.61545H76.5882V2.88832H75.7633V3.1009H75.3889V2.88832H74.5988V2.61545H75.3889V2.46632H74.7257V2.20614H75.3889V2.06336H74.602V1.79684H75.0208C75.0018 1.71752 74.9637 1.62233 74.9224 1.54935ZM74.5258 1.24158L74.2149 1.47955C74.126 1.32408 73.9166 1.10515 73.7389 0.95285L74.0277 0.737093C74.2054 0.879874 74.4243 1.08928 74.5258 1.24158ZM74.4402 1.88885V2.90101C74.5639 3.11359 74.786 3.20243 75.1096 3.21513C75.4904 3.23099 76.2392 3.22147 76.6771 3.18657C76.6326 3.27541 76.5787 3.44992 76.5597 3.55463C76.1662 3.57366 75.4936 3.58001 75.1065 3.56414C74.7289 3.54828 74.4751 3.45627 74.2847 3.21195C74.1578 3.3357 74.0277 3.45627 73.8659 3.5927L73.6882 3.2183C73.8119 3.13898 73.9547 3.03427 74.0816 2.92639V2.2347H73.7263V1.88885H74.4402ZM78.1207 0.75613V1.04169H77.1625V0.75613H78.1207ZM78.2413 1.1813V1.47955H77.0007V1.1813H78.2413ZM78.1271 2.05702V2.33941H77.1498V2.05702H78.1271ZM79.3391 2.35844H78.7331C78.8092 2.51709 78.9139 2.65987 79.0409 2.78678C79.1646 2.66304 79.263 2.52026 79.3391 2.35844ZM77.7971 3.15801V2.79313H77.4608V3.15801H77.7971ZM79.5771 2.00308L79.8246 2.09509C79.723 2.47901 79.5549 2.78044 79.3359 3.01841C79.5231 3.13898 79.7452 3.23099 79.9896 3.29128C79.9071 3.3706 79.7992 3.51972 79.7452 3.61808C79.4787 3.53876 79.2471 3.42136 79.0472 3.27224C78.8346 3.42136 78.5903 3.53559 78.3206 3.61808C78.2825 3.52607 78.1937 3.37694 78.1239 3.29128V3.45309H77.4608V3.57684H77.1403V2.49488H78.1239V3.28493C78.3619 3.22464 78.5776 3.1358 78.7648 3.01206C78.6189 2.85342 78.4983 2.66939 78.3999 2.46315L78.7236 2.35844H78.2825V2.01894H78.3904C78.3365 1.95549 78.2032 1.84126 78.1271 1.7905V1.91107H77.1498V1.62233H78.1271V1.77463C78.3999 1.58743 78.4348 1.33677 78.4348 1.12419V0.746612H79.4978V1.45734C79.4978 1.54618 79.5041 1.5557 79.539 1.5557H79.6183C79.6596 1.5557 79.6723 1.51445 79.6754 1.23841C79.7452 1.29235 79.8912 1.34629 79.9832 1.37167C79.9515 1.76511 79.869 1.87616 79.6564 1.87616H79.4724C79.2185 1.87616 79.1456 1.7778 79.1456 1.46369V1.07977H78.7902V1.13371C78.7902 1.43196 78.7267 1.79367 78.3968 2.01894H79.5136L79.5771 2.00308ZM81.4776 0.75613V1.04169H80.4718V0.75613H81.4776ZM81.5982 1.1813V1.47955H80.3005V1.1813H81.5982ZM81.1318 2.79313H80.7701V3.15801H81.1318V2.79313ZM81.4618 2.49488V3.45309H80.7701V3.57684H80.4433V2.49488H81.4618ZM80.4528 2.33941V2.05702H81.4713V2.33941H80.4528ZM80.4528 1.91107V1.62233H81.4713V1.91107H80.4528ZM83.2925 1.71752V2.09192H82.6294V3.62126H82.2487V2.09192H81.5855V1.71752H82.2487V0.670462H82.6294V1.71752H83.2925ZM85.2161 3.34521L84.3943 0.724402H84.9178L85.5302 2.83121L85.5556 2.90101L85.5809 2.83121L86.1901 0.724402H86.7105L85.8919 3.34521H85.2161ZM87.0415 1.28283H87.5206V3.34521H87.0415V1.28283ZM86.9939 0.914775C86.9939 0.781514 87.0859 0.692673 87.2827 0.692673C87.4794 0.692673 87.5714 0.781514 87.5714 0.914775C87.5714 1.03852 87.4794 1.13053 87.2827 1.13053C87.0859 1.13053 86.9939 1.03852 86.9939 0.914775ZM89.2766 2.16807C89.6796 2.26643 89.7843 2.46315 89.7843 2.73285C89.7843 3.09773 89.5939 3.37694 88.8832 3.37694C88.1947 3.37694 87.9472 3.12946 87.9472 2.66621V2.59007H88.439V2.66304C88.439 2.90101 88.5818 2.97716 88.8864 2.97716C89.2036 2.97716 89.2925 2.89784 89.2925 2.75823C89.2925 2.63449 89.2068 2.5742 89.0006 2.51074L88.5691 2.40604C88.1249 2.3172 87.9979 2.11413 87.9979 1.85395C87.9979 1.53032 88.1947 1.2511 88.8483 1.2511C89.5209 1.2511 89.7367 1.52714 89.7367 1.90789V1.97135H89.2449V1.91107C89.2449 1.71435 89.1116 1.65089 88.8451 1.65089C88.6484 1.65089 88.4897 1.69848 88.4897 1.83174C88.4897 1.9301 88.5659 1.98404 88.7531 2.03164L89.2766 2.16807ZM91.4928 3.34521V3.0311C91.369 3.23099 91.1628 3.37694 90.8677 3.37694C90.4362 3.37694 90.1982 3.06283 90.1982 2.58372V1.28283H90.6742V2.52978C90.6742 2.81534 90.7947 2.97081 91.0644 2.97081C91.423 2.97081 91.4928 2.69794 91.4928 2.51392V1.28283H91.9687V3.34521H91.4928ZM93.7386 3.34521V3.0311C93.5768 3.28176 93.3071 3.37694 93.012 3.37694C92.6281 3.37694 92.3965 3.19926 92.3965 2.83438C92.3965 2.43459 92.7424 2.28547 93.0501 2.20297L93.2754 2.14586C93.5514 2.07606 93.726 2.02846 93.726 1.86982V1.85395C93.726 1.74607 93.6339 1.65089 93.3674 1.65089C93.0628 1.65089 92.9422 1.76511 92.9422 1.95866V2.05702H92.4631V1.99673C92.4631 1.51128 92.7709 1.2511 93.3611 1.2511C93.9925 1.2511 94.2019 1.52397 94.2019 1.94597V3.34521H93.7386ZM92.8756 2.77727C92.8756 2.91687 92.9676 2.97716 93.1612 2.97716C93.4594 2.97716 93.6847 2.809 93.726 2.52343V2.28229C93.6784 2.39652 93.5324 2.42825 93.3547 2.48536L93.1517 2.5393C92.9676 2.59324 92.8756 2.65352 92.8756 2.77727ZM94.7006 0.724402H95.1797V3.34521H94.7006V0.724402ZM97.7501 3.37694C97.0013 3.37694 96.6047 2.88514 96.6047 2.22201V1.84126C96.6047 1.1813 97.0013 0.692673 97.7533 0.692673C98.4354 0.692673 98.8162 1.10832 98.8511 1.66041L98.8574 1.80953H98.3434L98.3403 1.60012C98.3212 1.34629 98.1245 1.12419 97.7533 1.12419C97.3059 1.12419 97.1123 1.42561 97.1123 1.78415V2.28547C97.1123 2.65035 97.3059 2.94543 97.7533 2.94543C98.1308 2.94543 98.3212 2.72015 98.3403 2.46632L98.3434 2.25691H98.8574L98.8511 2.40604C98.8162 2.95812 98.4386 3.37694 97.7501 3.37694ZM100.143 3.37694C99.5208 3.37694 99.2131 3.01523 99.2131 2.43142V2.19663C99.2131 1.61281 99.5208 1.2511 100.143 1.2511C100.768 1.2511 101.072 1.61281 101.072 2.19663V2.43142C101.072 3.01523 100.768 3.37694 100.143 3.37694ZM99.7017 2.47267C99.7017 2.77092 99.8128 2.96764 100.143 2.96764C100.473 2.96764 100.584 2.77092 100.584 2.47267V2.15538C100.584 1.8603 100.473 1.66041 100.143 1.66041C99.8128 1.66041 99.7017 1.8603 99.7017 2.15538V2.47267ZM103.887 2.07288C103.887 1.85078 103.817 1.65723 103.548 1.65723C103.227 1.65723 103.176 1.92058 103.176 2.07606V3.34521H102.7V2.07288C102.7 1.85078 102.631 1.65723 102.361 1.65723C102.044 1.65723 101.993 1.92058 101.993 2.07606V3.34521H101.514V1.28283H101.993V1.5208C102.11 1.33994 102.282 1.2511 102.516 1.2511C102.815 1.2511 102.999 1.38754 103.091 1.58426C103.208 1.39071 103.402 1.2511 103.694 1.2511C104.138 1.2511 104.363 1.56205 104.363 1.99356V3.34521H103.887V2.07288ZM107.233 2.07288C107.233 1.85078 107.164 1.65723 106.894 1.65723C106.573 1.65723 106.523 1.92058 106.523 2.07606V3.34521H106.047V2.07288C106.047 1.85078 105.977 1.65723 105.707 1.65723C105.39 1.65723 105.339 1.92058 105.339 2.07606V3.34521H104.86V1.28283H105.339V1.5208C105.457 1.33994 105.628 1.2511 105.863 1.2511C106.161 1.2511 106.345 1.38754 106.437 1.58426C106.554 1.39071 106.748 1.2511 107.04 1.2511C107.484 1.2511 107.709 1.56205 107.709 1.99356V3.34521H107.233V2.07288ZM109.482 3.34521V3.0311C109.358 3.23099 109.152 3.37694 108.857 3.37694C108.425 3.37694 108.187 3.06283 108.187 2.58372V1.28283H108.663V2.52978C108.663 2.81534 108.784 2.97081 109.054 2.97081C109.412 2.97081 109.482 2.69794 109.482 2.51392V1.28283H109.958V3.34521H109.482ZM110.947 1.28283V1.59695C111.071 1.39706 111.277 1.2511 111.572 1.2511C112.004 1.2511 112.242 1.56522 112.242 2.04433V3.34521H111.766V2.09827C111.766 1.81271 111.645 1.65723 111.376 1.65723C111.017 1.65723 110.947 1.9301 110.947 2.11413V3.34521H110.471V1.28283H110.947ZM112.736 1.28283H113.215V3.34521H112.736V1.28283ZM112.689 0.914775C112.689 0.781514 112.781 0.692673 112.977 0.692673C113.174 0.692673 113.266 0.781514 113.266 0.914775C113.266 1.03852 113.174 1.13053 112.977 1.13053C112.781 1.13053 112.689 1.03852 112.689 0.914775ZM115.041 2.0126C115.028 1.83809 114.911 1.66041 114.61 1.66041C114.273 1.66041 114.146 1.8603 114.146 2.15538V2.47901C114.146 2.77092 114.273 2.96764 114.613 2.96764C114.933 2.96764 115.032 2.78996 115.044 2.61545L115.051 2.47901H115.536L115.533 2.5742C115.501 3.01841 115.216 3.37694 114.603 3.37694C113.969 3.37694 113.658 3.01523 113.658 2.43142V2.19028C113.658 1.61281 113.969 1.2511 114.603 1.2511C115.212 1.2511 115.504 1.60964 115.533 2.05385L115.536 2.15538H115.051L115.041 2.0126ZM117.221 3.34521V3.0311C117.059 3.28176 116.79 3.37694 116.494 3.37694C116.111 3.37694 115.879 3.19926 115.879 2.83438C115.879 2.43459 116.225 2.28547 116.533 2.20297L116.758 2.14586C117.034 2.07606 117.208 2.02846 117.208 1.86982V1.85395C117.208 1.74607 117.116 1.65089 116.85 1.65089C116.545 1.65089 116.425 1.76511 116.425 1.95866V2.05702H115.946V1.99673C115.946 1.51128 116.253 1.2511 116.843 1.2511C117.475 1.2511 117.684 1.52397 117.684 1.94597V3.34521H117.221ZM116.358 2.77727C116.358 2.91687 116.45 2.97716 116.644 2.97716C116.942 2.97716 117.167 2.809 117.208 2.52343V2.28229C117.161 2.39652 117.015 2.42825 116.837 2.48536L116.634 2.5393C116.45 2.59324 116.358 2.65352 116.358 2.77727ZM119.548 1.28283V1.69531H118.948V2.64718C118.948 2.87245 119.002 2.93274 119.142 2.93274H119.548V3.34521H119.018C118.593 3.34521 118.475 3.13263 118.475 2.74236V1.69531H117.996V1.28283H118.215C118.46 1.26379 118.526 1.07342 118.52 0.724402H118.996C118.996 1.00044 118.948 1.24158 118.79 1.28283H119.548ZM119.986 1.28283H120.465V3.34521H119.986V1.28283ZM119.939 0.914775C119.939 0.781514 120.031 0.692673 120.227 0.692673C120.424 0.692673 120.516 0.781514 120.516 0.914775C120.516 1.03852 120.424 1.13053 120.227 1.13053C120.031 1.13053 119.939 1.03852 119.939 0.914775ZM121.837 3.37694C121.216 3.37694 120.908 3.01523 120.908 2.43142V2.19663C120.908 1.61281 121.216 1.2511 121.837 1.2511C122.462 1.2511 122.767 1.61281 122.767 2.19663V2.43142C122.767 3.01523 122.462 3.37694 121.837 3.37694ZM121.396 2.47267C121.396 2.77092 121.507 2.96764 121.837 2.96764C122.167 2.96764 122.278 2.77092 122.278 2.47267V2.15538C122.278 1.8603 122.167 1.66041 121.837 1.66041C121.507 1.66041 121.396 1.8603 121.396 2.15538V2.47267ZM123.684 1.28283V1.59695C123.808 1.39706 124.014 1.2511 124.309 1.2511C124.741 1.2511 124.979 1.56522 124.979 2.04433V3.34521H124.503V2.09827C124.503 1.81271 124.382 1.65723 124.113 1.65723C123.754 1.65723 123.684 1.9301 123.684 2.11413V3.34521H123.208V1.28283H123.684ZM126.472 3.34521V0.724402H127.519C128.223 0.724402 128.585 1.06707 128.585 1.83174V2.23787C128.585 2.9962 128.217 3.34521 127.519 3.34521H126.472ZM126.967 2.92639H127.525C127.906 2.92639 128.077 2.72333 128.077 2.27595V1.79367C128.077 1.34629 127.906 1.14322 127.522 1.14322H126.967V2.92639ZM128.97 2.43142V2.19028C128.97 1.61281 129.281 1.2511 129.931 1.2511C130.521 1.2511 130.851 1.58743 130.851 2.20297V2.43142H129.465V2.47901C129.465 2.77092 129.592 2.96764 129.934 2.96764C130.194 2.96764 130.293 2.85024 130.315 2.71381L130.321 2.64083H130.838L130.835 2.67256C130.797 3.09456 130.499 3.37694 129.931 3.37694C129.281 3.37694 128.97 3.01523 128.97 2.43142ZM129.468 2.08557H130.356L130.353 1.99991C130.315 1.78098 130.169 1.66041 129.915 1.66041C129.617 1.66041 129.487 1.83174 129.468 2.08557ZM132.536 2.16807C132.939 2.26643 133.043 2.46315 133.043 2.73285C133.043 3.09773 132.853 3.37694 132.142 3.37694C131.454 3.37694 131.206 3.12946 131.206 2.66621V2.59007H131.698V2.66304C131.698 2.90101 131.841 2.97716 132.145 2.97716C132.463 2.97716 132.552 2.89784 132.552 2.75823C132.552 2.63449 132.466 2.5742 132.26 2.51074L131.828 2.40604C131.384 2.3172 131.257 2.11413 131.257 1.85395C131.257 1.53032 131.454 1.2511 132.107 1.2511C132.78 1.2511 132.996 1.52714 132.996 1.90789V1.97135H132.504V1.91107C132.504 1.71435 132.371 1.65089 132.104 1.65089C131.908 1.65089 131.749 1.69848 131.749 1.83174C131.749 1.9301 131.825 1.98404 132.012 2.03164L132.536 2.16807ZM133.476 1.28283H133.955V3.34521H133.476V1.28283ZM133.429 0.914775C133.429 0.781514 133.521 0.692673 133.718 0.692673C133.914 0.692673 134.006 0.781514 134.006 0.914775C134.006 1.03852 133.914 1.13053 133.718 1.13053C133.521 1.13053 133.429 1.03852 133.429 0.914775ZM135.803 3.30714V3.09138C135.708 3.23416 135.527 3.37694 135.213 3.37694C134.706 3.37694 134.401 3.02158 134.401 2.5044V2.10461C134.401 1.61916 134.702 1.2511 135.207 1.2511C135.512 1.2511 135.696 1.38436 135.803 1.5208V1.28283H136.279V3.34204C136.279 3.8148 136.133 4.06229 135.6 4.06229H134.512V3.64981H135.515C135.746 3.64981 135.803 3.55463 135.803 3.30714ZM134.893 2.48219C134.893 2.73919 135.023 2.96764 135.347 2.96764C135.664 2.96764 135.803 2.74236 135.803 2.48219V2.14269C135.803 1.88251 135.667 1.66041 135.347 1.66041C135.023 1.66041 134.893 1.88568 134.893 2.14586V2.48219ZM137.267 1.28283V1.59695C137.391 1.39706 137.597 1.2511 137.893 1.2511C138.324 1.2511 138.562 1.56522 138.562 2.04433V3.34521H138.086V2.09827C138.086 1.81271 137.966 1.65723 137.696 1.65723C137.337 1.65723 137.267 1.9301 137.267 2.11413V3.34521H136.792V1.28283H137.267ZM141.618 0.724402L139.974 3.34521H139.8L141.443 0.724402H141.618ZM143.524 1.18764H143.232V1.74607H143.524V1.18764ZM143.232 2.67256H143.524V2.07606H143.232V2.67256ZM143.876 0.851317V3.00889H143.232V3.2881H142.883V0.851317H143.876ZM144.063 2.74236L144.365 2.56785C144.511 2.72333 144.682 2.93274 144.749 3.08821L144.425 3.27541C144.368 3.12946 144.206 2.90418 144.063 2.74236ZM145.742 1.9301H145.415V2.20297H145.72V2.52978H145.415V3.22147C145.415 3.40233 145.38 3.49751 145.256 3.55463C145.133 3.60857 144.961 3.61808 144.727 3.61808C144.714 3.51338 144.657 3.36425 144.606 3.26272C144.758 3.26907 144.936 3.26907 144.984 3.26907C145.034 3.26907 145.05 3.25637 145.05 3.21195V2.52978H143.936V2.20297H145.05V1.9301H143.93V1.60012H144.647V1.32091H144.038V0.990925H144.647V0.657771H145.018V0.990925H145.653V1.32091H145.018V1.60012H145.742V1.9301ZM148.448 0.71171L148.826 0.841799C148.683 1.08928 148.515 1.34946 148.375 1.51763L148.058 1.39071C148.191 1.20985 148.356 0.924294 148.448 0.71171ZM147.036 1.35581L146.681 1.5208C146.618 1.34629 146.459 1.07342 146.307 0.876701L146.643 0.737093C146.802 0.924294 146.963 1.17813 147.036 1.35581ZM147.801 2.44411H147.322V2.77092H147.801V2.44411ZM148.153 3.08504H147.322V3.28176H146.982V2.13H148.153V3.08504ZM148.807 1.55887V3.20561C148.807 3.38646 148.772 3.488 148.648 3.54511C148.531 3.60539 148.36 3.61174 148.122 3.61174C148.109 3.50703 148.055 3.34839 148.001 3.2532C148.153 3.25955 148.321 3.25955 148.372 3.25637C148.42 3.25637 148.436 3.24051 148.436 3.19609V1.91107H146.71V3.62126H146.332V1.55887H147.366V0.657771H147.753V1.55887H148.807ZM150.501 0.75613V1.04169H149.543V0.75613H150.501ZM150.622 1.1813V1.47955H149.381V1.1813H150.622ZM150.508 2.05702V2.33941H149.53V2.05702H150.508ZM151.72 2.35844H151.114C151.19 2.51709 151.294 2.65987 151.421 2.78678C151.545 2.66304 151.643 2.52026 151.72 2.35844ZM150.178 3.15801V2.79313H149.841V3.15801H150.178ZM151.958 2.00308L152.205 2.09509C152.104 2.47901 151.935 2.78044 151.716 3.01841C151.904 3.13898 152.126 3.23099 152.37 3.29128C152.288 3.3706 152.18 3.51972 152.126 3.61808C151.859 3.53876 151.628 3.42136 151.428 3.27224C151.215 3.42136 150.971 3.53559 150.701 3.61808C150.663 3.52607 150.574 3.37694 150.504 3.29128V3.45309H149.841V3.57684H149.521V2.49488H150.504V3.28493C150.742 3.22464 150.958 3.1358 151.145 3.01206C150.999 2.85342 150.879 2.66939 150.78 2.46315L151.104 2.35844H150.663V2.01894H150.771C150.717 1.95549 150.584 1.84126 150.508 1.7905V1.91107H149.53V1.62233H150.508V1.77463C150.78 1.58743 150.815 1.33677 150.815 1.12419V0.746612H151.878V1.45734C151.878 1.54618 151.885 1.5557 151.919 1.5557H151.999C152.04 1.5557 152.053 1.51445 152.056 1.23841C152.126 1.29235 152.272 1.34629 152.364 1.37167C152.332 1.76511 152.249 1.87616 152.037 1.87616H151.853C151.599 1.87616 151.526 1.7778 151.526 1.46369V1.07977H151.171V1.13371C151.171 1.43196 151.107 1.79367 150.777 2.01894H151.894L151.958 2.00308ZM153.858 0.75613V1.04169H152.852V0.75613H153.858ZM153.979 1.1813V1.47955H152.681V1.1813H153.979ZM153.512 2.79313H153.151V3.15801H153.512V2.79313ZM153.842 2.49488V3.45309H153.151V3.57684H152.824V2.49488H153.842ZM152.833 2.33941V2.05702H153.852V2.33941H152.833ZM152.833 1.91107V1.62233H153.852V1.91107H152.833ZM155.673 1.71752V2.09192H155.01V3.62126H154.629V2.09192H153.966V1.71752H154.629V0.670462H155.01V1.71752H155.673ZM157.068 3.34521V0.724402H158.848V1.15909H157.563V1.91424H158.772V2.34575H157.563V3.34521H157.068ZM160.443 3.34521V3.0311C160.281 3.28176 160.011 3.37694 159.716 3.37694C159.332 3.37694 159.101 3.19926 159.101 2.83438C159.101 2.43459 159.447 2.28547 159.754 2.20297L159.98 2.14586C160.256 2.07606 160.43 2.02846 160.43 1.86982V1.85395C160.43 1.74607 160.338 1.65089 160.072 1.65089C159.767 1.65089 159.647 1.76511 159.647 1.95866V2.05702H159.167V1.99673C159.167 1.51128 159.475 1.2511 160.065 1.2511C160.697 1.2511 160.906 1.52397 160.906 1.94597V3.34521H160.443ZM159.58 2.77727C159.58 2.91687 159.672 2.97716 159.866 2.97716C160.164 2.97716 160.389 2.809 160.43 2.52343V2.28229C160.383 2.39652 160.237 2.42825 160.059 2.48536L159.856 2.5393C159.672 2.59324 159.58 2.65352 159.58 2.77727ZM162.646 2.16807C163.049 2.26643 163.153 2.46315 163.153 2.73285C163.153 3.09773 162.963 3.37694 162.252 3.37694C161.564 3.37694 161.316 3.12946 161.316 2.66621V2.59007H161.808V2.66304C161.808 2.90101 161.951 2.97716 162.255 2.97716C162.573 2.97716 162.661 2.89784 162.661 2.75823C162.661 2.63449 162.576 2.5742 162.37 2.51074L161.938 2.40604C161.494 2.3172 161.367 2.11413 161.367 1.85395C161.367 1.53032 161.564 1.2511 162.217 1.2511C162.89 1.2511 163.106 1.52714 163.106 1.90789V1.97135H162.614V1.91107C162.614 1.71435 162.481 1.65089 162.214 1.65089C162.017 1.65089 161.859 1.69848 161.859 1.83174C161.859 1.9301 161.935 1.98404 162.122 2.03164L162.646 2.16807ZM164.065 0.724402V1.59378C164.189 1.39388 164.392 1.2511 164.687 1.2511C165.119 1.2511 165.357 1.56522 165.357 2.04433V3.34521H164.881V2.09827C164.881 1.81271 164.76 1.65723 164.49 1.65723C164.173 1.65723 164.081 1.86982 164.065 2.0475V3.34521H163.586V0.724402H164.065ZM165.851 1.28283H166.33V3.34521H165.851V1.28283ZM165.803 0.914775C165.803 0.781514 165.895 0.692673 166.092 0.692673C166.289 0.692673 166.381 0.781514 166.381 0.914775C166.381 1.03852 166.289 1.13053 166.092 1.13053C165.895 1.13053 165.803 1.03852 165.803 0.914775ZM167.702 3.37694C167.08 3.37694 166.773 3.01523 166.773 2.43142V2.19663C166.773 1.61281 167.08 1.2511 167.702 1.2511C168.327 1.2511 168.632 1.61281 168.632 2.19663V2.43142C168.632 3.01523 168.327 3.37694 167.702 3.37694ZM167.261 2.47267C167.261 2.77092 167.372 2.96764 167.702 2.96764C168.032 2.96764 168.143 2.77092 168.143 2.47267V2.15538C168.143 1.8603 168.032 1.66041 167.702 1.66041C167.372 1.66041 167.261 1.8603 167.261 2.15538V2.47267ZM169.549 1.28283V1.59695C169.673 1.39706 169.879 1.2511 170.174 1.2511C170.606 1.2511 170.844 1.56522 170.844 2.04433V3.34521H170.368V2.09827C170.368 1.81271 170.247 1.65723 169.978 1.65723C169.619 1.65723 169.549 1.9301 169.549 2.11413V3.34521H169.073V1.28283H169.549ZM172.337 3.34521V0.724402H173.384C174.088 0.724402 174.45 1.06707 174.45 1.83174V2.23787C174.45 2.9962 174.082 3.34521 173.384 3.34521H172.337ZM172.832 2.92639H173.39C173.771 2.92639 173.942 2.72333 173.942 2.27595V1.79367C173.942 1.34629 173.771 1.14322 173.387 1.14322H172.832V2.92639ZM174.834 2.43142V2.19028C174.834 1.61281 175.145 1.2511 175.796 1.2511C176.386 1.2511 176.716 1.58743 176.716 2.20297V2.43142H175.329V2.47901C175.329 2.77092 175.456 2.96764 175.799 2.96764C176.059 2.96764 176.158 2.85024 176.18 2.71381L176.186 2.64083H176.703L176.7 2.67256C176.662 3.09456 176.364 3.37694 175.796 3.37694C175.145 3.37694 174.834 3.01523 174.834 2.43142ZM175.333 2.08557H176.221L176.218 1.99991C176.18 1.78098 176.034 1.66041 175.78 1.66041C175.482 1.66041 175.352 1.83174 175.333 2.08557ZM178.401 2.16807C178.804 2.26643 178.908 2.46315 178.908 2.73285C178.908 3.09773 178.718 3.37694 178.007 3.37694C177.319 3.37694 177.071 3.12946 177.071 2.66621V2.59007H177.563V2.66304C177.563 2.90101 177.706 2.97716 178.01 2.97716C178.328 2.97716 178.416 2.89784 178.416 2.75823C178.416 2.63449 178.331 2.5742 178.125 2.51074L177.693 2.40604C177.249 2.3172 177.122 2.11413 177.122 1.85395C177.122 1.53032 177.319 1.2511 177.972 1.2511C178.645 1.2511 178.861 1.52714 178.861 1.90789V1.97135H178.369V1.91107C178.369 1.71435 178.236 1.65089 177.969 1.65089C177.772 1.65089 177.614 1.69848 177.614 1.83174C177.614 1.9301 177.69 1.98404 177.877 2.03164L178.401 2.16807ZM179.341 1.28283H179.82V3.34521H179.341V1.28283ZM179.294 0.914775C179.294 0.781514 179.386 0.692673 179.582 0.692673C179.779 0.692673 179.871 0.781514 179.871 0.914775C179.871 1.03852 179.779 1.13053 179.582 1.13053C179.386 1.13053 179.294 1.03852 179.294 0.914775ZM181.668 3.30714V3.09138C181.573 3.23416 181.392 3.37694 181.078 3.37694C180.571 3.37694 180.266 3.02158 180.266 2.5044V2.10461C180.266 1.61916 180.567 1.2511 181.072 1.2511C181.376 1.2511 181.56 1.38436 181.668 1.5208V1.28283H182.144V3.34204C182.144 3.8148 181.998 4.06229 181.465 4.06229H180.377V3.64981H181.38C181.611 3.64981 181.668 3.55463 181.668 3.30714ZM180.758 2.48219C180.758 2.73919 180.888 2.96764 181.211 2.96764C181.529 2.96764 181.668 2.74236 181.668 2.48219V2.14269C181.668 1.88251 181.532 1.66041 181.211 1.66041C180.888 1.66041 180.758 1.88568 180.758 2.14586V2.48219ZM183.132 1.28283V1.59695C183.256 1.39706 183.462 1.2511 183.757 1.2511C184.189 1.2511 184.427 1.56522 184.427 2.04433V3.34521H183.951V2.09827C183.951 1.81271 183.83 1.65723 183.561 1.65723C183.202 1.65723 183.132 1.9301 183.132 2.11413V3.34521H182.656V1.28283H183.132ZM187.483 0.724402L185.839 3.34521H185.664L187.308 0.724402H187.483ZM190.255 2.52661H189.735C189.674 2.61862 189.608 2.70112 189.541 2.76775C189.478 2.71064 189.344 2.61545 189.265 2.56785C189.427 2.42825 189.563 2.21249 189.64 1.98721L189.969 2.06654C189.95 2.12048 189.928 2.17759 189.903 2.23153H190.255V2.02212H190.623V2.23153H191.391V2.52661H190.623V2.72967H191.296V3.01523H190.623V3.25637H191.546V3.56097H189.319V3.25637H190.255V3.01523H189.589V2.72967H190.255V2.52661ZM189.671 1.68262H190.693C190.556 1.63502 190.401 1.58426 190.233 1.53349C190.052 1.5906 189.858 1.64137 189.671 1.68262ZM190.544 1.16861H189.779C189.928 1.20351 190.084 1.24476 190.236 1.286C190.347 1.2511 190.452 1.20985 190.544 1.16861ZM191.572 1.68262V1.98721H189.265V2.21566C189.265 2.63449 189.208 3.25955 188.913 3.65933C188.853 3.58953 188.697 3.46578 188.618 3.42136C188.872 3.066 188.897 2.56468 188.897 2.21249V1.68262H189.294C189.262 1.6255 189.221 1.56205 189.192 1.52397C189.383 1.49542 189.592 1.45734 189.798 1.40975C189.63 1.36533 189.465 1.32408 189.31 1.28918L189.475 1.16861H188.875V0.873528H189.931V0.660944H190.309V0.873528H191.42V1.16861H190.905L190.975 1.20668C190.871 1.27331 190.747 1.33677 190.61 1.39388C190.788 1.44782 190.95 1.50176 191.083 1.54935L190.925 1.68262H191.572ZM193.983 1.57157V1.14322H192.873V1.57157H193.983ZM194.367 0.781514V1.9301H192.508V0.781514H194.367ZM192.901 2.55516H192.428V3.1009H192.901V2.55516ZM192.07 3.62126V2.19345H193.279V3.60539H192.901V3.46261H192.428V3.62126H192.07ZM193.91 3.1009H194.415V2.55516H193.91V3.1009ZM193.549 2.19345H194.795V3.60857H194.415V3.46261H193.91V3.62126H193.549V2.19345ZM196.366 0.75613V1.04169H195.408V0.75613H196.366ZM196.487 1.1813V1.47955H195.246V1.1813H196.487ZM196.372 2.05702V2.33941H195.395V2.05702H196.372ZM197.584 2.35844H196.978C197.055 2.51709 197.159 2.65987 197.286 2.78678C197.41 2.66304 197.508 2.52026 197.584 2.35844ZM196.042 3.15801V2.79313H195.706V3.15801H196.042ZM197.822 2.00308L198.07 2.09509C197.968 2.47901 197.8 2.78044 197.581 3.01841C197.768 3.13898 197.991 3.23099 198.235 3.29128C198.152 3.3706 198.045 3.51972 197.991 3.61808C197.724 3.53876 197.492 3.42136 197.293 3.27224C197.08 3.42136 196.836 3.53559 196.566 3.61808C196.528 3.52607 196.439 3.37694 196.369 3.29128V3.45309H195.706V3.57684H195.386V2.49488H196.369V3.28493C196.607 3.22464 196.823 3.1358 197.01 3.01206C196.864 2.85342 196.744 2.66939 196.645 2.46315L196.969 2.35844H196.528V2.01894H196.636C196.582 1.95549 196.449 1.84126 196.372 1.7905V1.91107H195.395V1.62233H196.372V1.77463C196.645 1.58743 196.68 1.33677 196.68 1.12419V0.746612H197.743V1.45734C197.743 1.54618 197.749 1.5557 197.784 1.5557H197.864C197.905 1.5557 197.918 1.51445 197.921 1.23841C197.991 1.29235 198.137 1.34629 198.229 1.37167C198.197 1.76511 198.114 1.87616 197.902 1.87616H197.718C197.464 1.87616 197.391 1.7778 197.391 1.46369V1.07977H197.036V1.13371C197.036 1.43196 196.972 1.79367 196.642 2.01894H197.759L197.822 2.00308ZM199.723 0.75613V1.04169H198.717V0.75613H199.723ZM199.844 1.1813V1.47955H198.546V1.1813H199.844ZM199.377 2.79313H199.015V3.15801H199.377V2.79313ZM199.707 2.49488V3.45309H199.015V3.57684H198.689V2.49488H199.707ZM198.698 2.33941V2.05702H199.717V2.33941H198.698ZM198.698 1.91107V1.62233H199.717V1.91107H198.698ZM201.538 1.71752V2.09192H200.875V3.62126H200.494V2.09192H199.831V1.71752H200.494V0.670462H200.875V1.71752H201.538ZM202.933 3.34521V0.724402H204.097C204.71 0.724402 205.008 0.987752 205.008 1.58743V1.61916C205.008 2.21249 204.726 2.48536 204.097 2.48536H203.428V3.34521H202.933ZM203.428 2.06336H204.107C204.392 2.06336 204.5 1.94914 204.5 1.69531V1.50493C204.5 1.25428 204.392 1.14322 204.107 1.14322H203.428V2.06336ZM205.881 1.28283V1.5906C205.969 1.39071 206.188 1.2511 206.458 1.2511C206.801 1.2511 207.067 1.44465 207.067 1.95866V2.21884H206.579V2.0126C206.579 1.76828 206.493 1.65723 206.28 1.65723C205.979 1.65723 205.881 1.86664 205.881 2.05702V3.34521H205.401V1.28283H205.881ZM208.309 3.37694C207.687 3.37694 207.38 3.01523 207.38 2.43142V2.19663C207.38 1.61281 207.687 1.2511 208.309 1.2511C208.934 1.2511 209.239 1.61281 209.239 2.19663V2.43142C209.239 3.01523 208.934 3.37694 208.309 3.37694ZM207.868 2.47267C207.868 2.77092 207.979 2.96764 208.309 2.96764C208.639 2.96764 208.75 2.77092 208.75 2.47267V2.15538C208.75 1.8603 208.639 1.66041 208.309 1.66041C207.979 1.66041 207.868 1.8603 207.868 2.15538V2.47267ZM211.01 0.724402H211.486V3.34521H211.01V3.09456C210.915 3.23734 210.734 3.37694 210.423 3.37694C209.915 3.37694 209.611 3.02158 209.611 2.5044V2.10461C209.611 1.61916 209.912 1.2511 210.416 1.2511C210.718 1.2511 210.902 1.38436 211.01 1.51763V0.724402ZM210.102 2.48219C210.102 2.73919 210.232 2.96764 210.556 2.96764C210.845 2.96764 210.988 2.78044 211.01 2.54882V2.07606C210.988 1.84443 210.848 1.66041 210.556 1.66041C210.232 1.66041 210.102 1.88568 210.102 2.14586V2.48219ZM213.277 3.34521V3.0311C213.153 3.23099 212.947 3.37694 212.651 3.37694C212.22 3.37694 211.982 3.06283 211.982 2.58372V1.28283H212.458V2.52978C212.458 2.81534 212.578 2.97081 212.848 2.97081C213.207 2.97081 213.277 2.69794 213.277 2.51392V1.28283H213.752V3.34521H213.277ZM215.576 2.0126C215.564 1.83809 215.446 1.66041 215.145 1.66041C214.808 1.66041 214.682 1.8603 214.682 2.15538V2.47901C214.682 2.77092 214.808 2.96764 215.148 2.96764C215.468 2.96764 215.567 2.78996 215.579 2.61545L215.586 2.47901H216.071L216.068 2.5742C216.036 3.01841 215.751 3.37694 215.138 3.37694C214.504 3.37694 214.193 3.01523 214.193 2.43142V2.19028C214.193 1.61281 214.504 1.2511 215.138 1.2511C215.748 1.2511 216.04 1.60964 216.068 2.05385L216.071 2.15538H215.586L215.576 2.0126ZM217.852 1.28283V1.69531H217.253V2.64718C217.253 2.87245 217.307 2.93274 217.446 2.93274H217.852V3.34521H217.322C216.897 3.34521 216.78 3.13263 216.78 2.74236V1.69531H216.301V1.28283H216.52C216.764 1.26379 216.831 1.07342 216.824 0.724402H217.3C217.3 1.00044 217.253 1.24158 217.094 1.28283H217.852ZM219.289 3.34521V0.724402H220.336C221.041 0.724402 221.402 1.06707 221.402 1.83174V2.23787C221.402 2.9962 221.034 3.34521 220.336 3.34521H219.289ZM219.784 2.92639H220.342C220.723 2.92639 220.895 2.72333 220.895 2.27595V1.79367C220.895 1.34629 220.723 1.14322 220.339 1.14322H219.784V2.92639ZM221.787 2.43142V2.19028C221.787 1.61281 222.098 1.2511 222.748 1.2511C223.338 1.2511 223.668 1.58743 223.668 2.20297V2.43142H222.282V2.47901C222.282 2.77092 222.409 2.96764 222.751 2.96764C223.012 2.96764 223.11 2.85024 223.132 2.71381L223.139 2.64083H223.656L223.653 2.67256C223.615 3.09456 223.316 3.37694 222.748 3.37694C222.098 3.37694 221.787 3.01523 221.787 2.43142ZM222.285 2.08557H223.173L223.17 1.99991C223.132 1.78098 222.986 1.66041 222.732 1.66041C222.434 1.66041 222.304 1.83174 222.285 2.08557ZM225.353 2.16807C225.756 2.26643 225.861 2.46315 225.861 2.73285C225.861 3.09773 225.67 3.37694 224.96 3.37694C224.271 3.37694 224.024 3.12946 224.024 2.66621V2.59007H224.515V2.66304C224.515 2.90101 224.658 2.97716 224.963 2.97716C225.28 2.97716 225.369 2.89784 225.369 2.75823C225.369 2.63449 225.283 2.5742 225.077 2.51074L224.645 2.40604C224.201 2.3172 224.074 2.11413 224.074 1.85395C224.074 1.53032 224.271 1.2511 224.925 1.2511C225.597 1.2511 225.813 1.52714 225.813 1.90789V1.97135H225.321V1.91107C225.321 1.71435 225.188 1.65089 224.922 1.65089C224.725 1.65089 224.566 1.69848 224.566 1.83174C224.566 1.9301 224.642 1.98404 224.829 2.03164L225.353 2.16807ZM226.294 1.28283H226.773V3.34521H226.294V1.28283ZM226.246 0.914775C226.246 0.781514 226.338 0.692673 226.535 0.692673C226.732 0.692673 226.824 0.781514 226.824 0.914775C226.824 1.03852 226.732 1.13053 226.535 1.13053C226.338 1.13053 226.246 1.03852 226.246 0.914775ZM228.621 3.30714V3.09138C228.526 3.23416 228.345 3.37694 228.031 3.37694C227.523 3.37694 227.218 3.02158 227.218 2.5044V2.10461C227.218 1.61916 227.52 1.2511 228.024 1.2511C228.329 1.2511 228.513 1.38436 228.621 1.5208V1.28283H229.097V3.34204C229.097 3.8148 228.951 4.06229 228.418 4.06229H227.329V3.64981H228.332C228.564 3.64981 228.621 3.55463 228.621 3.30714ZM227.71 2.48219C227.71 2.73919 227.84 2.96764 228.164 2.96764C228.481 2.96764 228.621 2.74236 228.621 2.48219V2.14269C228.621 1.88251 228.484 1.66041 228.164 1.66041C227.84 1.66041 227.71 1.88568 227.71 2.14586V2.48219ZM230.085 1.28283V1.59695C230.209 1.39706 230.415 1.2511 230.71 1.2511C231.141 1.2511 231.379 1.56522 231.379 2.04433V3.34521H230.903V2.09827C230.903 1.81271 230.783 1.65723 230.513 1.65723C230.155 1.65723 230.085 1.9301 230.085 2.11413V3.34521H229.609V1.28283H230.085ZM234.435 0.724402L232.791 3.34521H232.617L234.26 0.724402H234.435ZM237.944 1.1464H237.655V1.27649H237.944V1.1464ZM237.944 1.69531V1.56522H237.655V1.69531H237.944ZM237.287 1.27649V1.1464H236.706V0.860836H237.287V0.679981H237.655V0.860836H238.315V1.27649H238.553V1.56522H238.315V1.98087H237.655V2.12048H238.34V2.39335H237.655V2.54247H238.486V2.83755H237.655V3.09456H237.287V2.83755H236.535V2.54247H237.287V2.39335H236.671V2.12048H237.287V1.98087H236.69V1.69531H237.287V1.56522H236.49V1.27649H237.287ZM236.373 1.71752L236.595 1.76828C236.557 2.22201 236.481 2.59641 236.37 2.89784C236.665 3.13263 237.065 3.18022 237.528 3.1834C237.715 3.1834 238.359 3.1834 238.591 3.17388C238.531 3.25955 238.47 3.43723 238.445 3.54193H237.518C236.982 3.54193 236.551 3.47848 236.214 3.22464C236.116 3.39598 235.999 3.52924 235.862 3.63395C235.805 3.5578 235.659 3.42771 235.58 3.38012C235.729 3.27541 235.853 3.1358 235.951 2.95495C235.834 2.7963 235.735 2.59324 235.653 2.33941L235.948 2.23153C235.989 2.37114 236.043 2.48853 236.103 2.59007C236.151 2.43142 236.189 2.25374 236.214 2.05702H235.999L235.957 2.14903L235.615 2.06019C235.751 1.78098 235.903 1.4383 236.021 1.16226H235.608V0.83228H236.189L236.246 0.819588L236.503 0.889392C236.408 1.13688 236.278 1.4383 236.148 1.72704H236.306L236.373 1.71752ZM239.495 1.17495H239.444C239.362 1.286 239.276 1.38436 239.194 1.46051C239.124 1.40023 238.975 1.2987 238.889 1.25428C239.079 1.10198 239.257 0.867182 239.352 0.632388L239.705 0.727574C239.682 0.778341 239.657 0.829107 239.632 0.879874H240.336V1.11467C240.463 0.978233 240.571 0.806897 240.637 0.632388L240.996 0.718056C240.974 0.771995 240.948 0.825934 240.92 0.879874H241.84V1.17495H241.285C241.335 1.24476 241.38 1.31456 241.405 1.3685L241.085 1.46051C241.053 1.38436 240.983 1.27014 240.91 1.17495H240.736C240.656 1.286 240.571 1.38436 240.485 1.46051C240.409 1.4034 240.244 1.31773 240.155 1.27966C240.196 1.24793 240.238 1.21303 240.279 1.17495H239.835C239.876 1.24793 239.914 1.32091 239.933 1.37485L239.628 1.46369C239.606 1.38436 239.552 1.27331 239.495 1.17495ZM241.11 1.72704H240.647V1.80636C240.647 1.85078 240.644 1.89203 240.641 1.93645L240.799 1.80001C240.901 1.86982 241.024 1.965 241.11 2.0475V1.72704ZM241.818 2.88197H240.812C241.085 3.04062 241.491 3.16119 241.875 3.21513C241.795 3.29445 241.688 3.44357 241.634 3.53559C241.25 3.45309 240.853 3.27858 240.561 3.04696V3.61174H240.196V3.04062C239.908 3.27224 239.508 3.45309 239.121 3.54511C239.067 3.45627 238.965 3.31349 238.889 3.23734C239.26 3.17705 239.654 3.04696 239.92 2.88197H238.949V2.58689H240.196V2.50757C240.177 2.51709 240.158 2.52343 240.136 2.53295C240.095 2.4695 239.977 2.3521 239.904 2.29816C239.574 2.34893 239.251 2.39652 238.994 2.43777L238.953 2.13951C239.086 2.12365 239.248 2.10144 239.425 2.07606V1.75559H239.026V1.49542H240.165V1.75559H239.768V2.02846L240.161 1.97135L240.171 2.12682C240.282 2.02529 240.304 1.91107 240.304 1.79684V1.47955H241.466V2.03798C241.466 2.09192 241.462 2.12365 241.472 2.13317C241.478 2.14586 241.488 2.14903 241.5 2.14903H241.551C241.567 2.14903 241.58 2.14903 241.589 2.13951C241.599 2.13317 241.608 2.11413 241.615 2.07606C241.621 2.04115 241.624 1.95866 241.627 1.85713C241.684 1.90789 241.795 1.95866 241.872 1.98721C241.862 2.10778 241.849 2.23787 241.83 2.28864C241.808 2.34575 241.773 2.387 241.726 2.41238C241.681 2.43459 241.611 2.44411 241.558 2.44411H241.402C241.323 2.44411 241.237 2.4219 241.183 2.36796C241.142 2.32354 241.12 2.27278 241.113 2.15221L240.932 2.31402C240.869 2.23153 240.742 2.11413 240.625 2.01894C240.593 2.15538 240.52 2.28864 240.38 2.39652H240.561V2.58689H241.818V2.88197ZM242.852 2.30768L242.862 2.56785H243.293V1.90472H243.591V2.56785H243.772V1.79684H243.299V0.981406C243.147 1.05438 242.976 1.13053 242.82 1.19082L242.827 1.41927H243.185V1.73021H242.836L242.843 1.99673H243.185V2.30768H242.852ZM245.143 2.56785V2.92005H244.28C244.591 3.06917 244.933 3.24368 245.137 3.36743L244.765 3.62443C244.565 3.49117 244.213 3.28176 243.893 3.12628L244.124 2.92005H243.173L243.452 3.12311C243.201 3.29762 242.817 3.50069 242.532 3.62126C242.462 3.54511 242.329 3.43088 242.24 3.36108C242.519 3.25637 242.862 3.07235 243.071 2.92005H242.227V2.56785H242.522L242.471 0.867182L242.684 0.924294C242.824 0.848144 242.963 0.759303 243.058 0.686327L243.299 0.917948V0.695845H243.62V0.97506H244.105V1.28918H243.62V1.50176H244.093V2.56785H244.486C244.489 2.48853 244.496 2.39969 244.502 2.31085H244.201V1.99991H244.515C244.518 1.91107 244.521 1.82222 244.524 1.73021H244.204V1.41927H244.531C244.534 1.3336 244.534 1.2511 244.534 1.16861H244.166V0.841799H244.883C244.88 1.39706 244.867 2.09192 244.838 2.56785H245.143ZM246.282 1.33677V1.47321H247.656V1.33677H246.282ZM246.282 0.984579V1.11784H247.656V0.984579H246.282ZM248.37 1.83492V2.13H245.571V1.83492H246.783V1.708H245.92V0.752958H248.037V1.708H247.167V1.83492H248.37ZM246.25 2.96447L246.596 3.10407C246.384 3.2881 246.044 3.47213 245.771 3.58001C245.708 3.51021 245.574 3.37694 245.495 3.31666C245.774 3.23416 246.079 3.10407 246.25 2.96447ZM246.358 2.49488V2.69794H247.602V2.49488H246.358ZM247.983 2.95812H247.174V3.29762C247.174 3.45944 247.139 3.53242 247.015 3.57366C246.888 3.61491 246.726 3.61491 246.504 3.61491C246.485 3.5229 246.441 3.40867 246.396 3.32618C246.526 3.33252 246.698 3.33252 246.739 3.32935C246.783 3.32618 246.799 3.31666 246.799 3.28176V2.95812H245.996V2.23153H247.983V2.95812ZM247.316 3.16753L247.567 2.96764C247.824 3.066 248.183 3.22782 248.376 3.35473L248.103 3.57684C247.935 3.45627 247.586 3.27541 247.316 3.16753ZM249.119 1.27966V1.10832H248.833V0.848144H249.119V0.673635H249.436V0.848144H249.772V0.673635H250.089V0.848144H250.359V1.10832H250.089V1.27966H249.772V1.10832H249.436V1.27966H249.119ZM250.772 2.06654V2.2696H251.298V2.06654H250.772ZM250.772 1.58108V1.78098H251.298V1.58108H250.772ZM250.772 1.08928V1.28918H251.298V1.08928H250.772ZM249.315 3.09138V3.21195H249.541V3.09138H249.315ZM249.541 2.52661V2.40921H249.315V2.52661H249.541ZM249.541 2.86928V2.74871H249.315V2.86928H249.541ZM249.134 1.5557V1.72704H249.293V1.5557H249.134ZM249.893 1.5557V1.72704H250.067V1.5557H249.893ZM251.397 3.26589H251.466C251.511 3.26589 251.524 3.22464 251.527 2.89149C251.587 2.94543 251.72 2.9962 251.806 3.02158C251.781 3.45309 251.701 3.56097 251.505 3.56097H251.343C251.092 3.56097 251.044 3.46896 251.044 3.18022V2.59324H250.93C250.899 3.066 250.803 3.40867 250.388 3.61491C250.369 3.57366 250.337 3.51972 250.299 3.46896H249.315V3.59905H249.011V2.75823C248.982 2.7963 248.95 2.83438 248.919 2.86611C248.887 2.809 248.798 2.67573 248.747 2.61545C248.903 2.44728 249.046 2.20297 249.128 1.94597H248.89V1.3336H249.544V1.94597H249.331L249.417 1.96818C249.395 2.03164 249.372 2.09509 249.347 2.15855H249.598C249.623 2.08875 249.645 2.0126 249.661 1.94597H249.652V1.3336H250.321V1.94597H249.794L249.975 1.98721C249.943 2.04433 249.915 2.10461 249.886 2.15855H250.337V2.40921H249.848V2.52661H250.28V2.74871H249.848V2.86928H250.28V3.09138H249.848V3.21195H250.343V3.2532C250.55 3.10407 250.597 2.88514 250.613 2.59324H250.451V0.768822H251.635V2.59324H251.362V3.17388C251.362 3.2532 251.368 3.26589 251.397 3.26589ZM253.218 0.75613V1.04169H252.26V0.75613H253.218ZM253.339 1.1813V1.47955H252.098V1.1813H253.339ZM253.224 2.05702V2.33941H252.247V2.05702H253.224ZM254.436 2.35844H253.83C253.906 2.51709 254.011 2.65987 254.138 2.78678C254.262 2.66304 254.36 2.52026 254.436 2.35844ZM252.894 3.15801V2.79313H252.558V3.15801H252.894ZM254.674 2.00308L254.922 2.09509C254.82 2.47901 254.652 2.78044 254.433 3.01841C254.62 3.13898 254.842 3.23099 255.087 3.29128C255.004 3.3706 254.896 3.51972 254.842 3.61808C254.576 3.53876 254.344 3.42136 254.144 3.27224C253.932 3.42136 253.688 3.53559 253.418 3.61808C253.38 3.52607 253.291 3.37694 253.221 3.29128V3.45309H252.558V3.57684H252.238V2.49488H253.221V3.28493C253.459 3.22464 253.675 3.1358 253.862 3.01206C253.716 2.85342 253.596 2.66939 253.497 2.46315L253.821 2.35844H253.38V2.01894H253.488C253.434 1.95549 253.3 1.84126 253.224 1.7905V1.91107H252.247V1.62233H253.224V1.77463C253.497 1.58743 253.532 1.33677 253.532 1.12419V0.746612H254.595V1.45734C254.595 1.54618 254.601 1.5557 254.636 1.5557H254.716C254.757 1.5557 254.769 1.51445 254.773 1.23841C254.842 1.29235 254.988 1.34629 255.08 1.37167C255.049 1.76511 254.966 1.87616 254.754 1.87616H254.57C254.316 1.87616 254.243 1.7778 254.243 1.46369V1.07977H253.887V1.13371C253.887 1.43196 253.824 1.79367 253.494 2.01894H254.611L254.674 2.00308ZM256.575 0.75613V1.04169H255.569V0.75613H256.575ZM256.695 1.1813V1.47955H255.398V1.1813H256.695ZM256.229 2.79313H255.867V3.15801H256.229V2.79313ZM256.559 2.49488V3.45309H255.867V3.57684H255.54V2.49488H256.559ZM255.55 2.33941V2.05702H256.569V2.33941H255.55ZM255.55 1.91107V1.62233H256.569V1.91107H255.55ZM258.39 1.71752V2.09192H257.727V3.62126H257.346V2.09192H256.683V1.71752H257.346V0.670462H257.727V1.71752H258.39ZM259.491 3.34521L260.31 0.724402H260.986L261.808 3.34521H261.284L261.157 2.91053H260.139L260.012 3.34521H259.491ZM260.262 2.47901H261.034L260.672 1.23841L260.65 1.17178L260.624 1.23841L260.262 2.47901ZM262.618 1.28283V1.5906C262.707 1.39071 262.926 1.2511 263.195 1.2511C263.538 1.2511 263.805 1.44465 263.805 1.95866V2.21884H263.316V2.0126C263.316 1.76828 263.23 1.65723 263.018 1.65723C262.716 1.65723 262.618 1.86664 262.618 2.05702V3.34521H262.139V1.28283H262.618ZM265.5 2.0126C265.488 1.83809 265.37 1.66041 265.069 1.66041C264.732 1.66041 264.605 1.8603 264.605 2.15538V2.47901C264.605 2.77092 264.732 2.96764 265.072 2.96764C265.392 2.96764 265.491 2.78996 265.503 2.61545L265.51 2.47901H265.995L265.992 2.5742C265.96 3.01841 265.675 3.37694 265.062 3.37694C264.428 3.37694 264.117 3.01523 264.117 2.43142V2.19028C264.117 1.61281 264.428 1.2511 265.062 1.2511C265.672 1.2511 265.963 1.60964 265.992 2.05385L265.995 2.15538H265.51L265.5 2.0126ZM266.903 0.724402V1.59378C267.027 1.39388 267.23 1.2511 267.525 1.2511C267.956 1.2511 268.194 1.56522 268.194 2.04433V3.34521H267.718V2.09827C267.718 1.81271 267.598 1.65723 267.328 1.65723C267.011 1.65723 266.919 1.86982 266.903 2.0475V3.34521H266.424V0.724402H266.903ZM268.689 1.28283H269.168V3.34521H268.689V1.28283ZM268.641 0.914775C268.641 0.781514 268.733 0.692673 268.93 0.692673C269.127 0.692673 269.219 0.781514 269.219 0.914775C269.219 1.03852 269.127 1.13053 268.93 1.13053C268.733 1.13053 268.641 1.03852 268.641 0.914775ZM271.07 1.28283V1.69531H270.47V2.64718C270.47 2.87245 270.524 2.93274 270.664 2.93274H271.07V3.34521H270.54C270.115 3.34521 269.997 3.13263 269.997 2.74236V1.69531H269.518V1.28283H269.737C269.981 1.26379 270.048 1.07342 270.042 0.724402H270.518C270.518 1.00044 270.47 1.24158 270.311 1.28283H271.07ZM271.379 2.43142V2.19028C271.379 1.61281 271.69 1.2511 272.341 1.2511C272.931 1.2511 273.261 1.58743 273.261 2.20297V2.43142H271.874V2.47901C271.874 2.77092 272.001 2.96764 272.344 2.96764C272.604 2.96764 272.702 2.85024 272.725 2.71381L272.731 2.64083H273.248L273.245 2.67256C273.207 3.09456 272.909 3.37694 272.341 3.37694C271.69 3.37694 271.379 3.01523 271.379 2.43142ZM271.877 2.08557H272.766L272.763 1.99991C272.725 1.78098 272.579 1.66041 272.325 1.66041C272.027 1.66041 271.897 1.83174 271.877 2.08557ZM275.015 2.0126C275.003 1.83809 274.885 1.66041 274.584 1.66041C274.247 1.66041 274.12 1.8603 274.12 2.15538V2.47901C274.12 2.77092 274.247 2.96764 274.587 2.96764C274.907 2.96764 275.006 2.78996 275.018 2.61545L275.025 2.47901H275.51L275.507 2.5742C275.475 3.01841 275.19 3.37694 274.577 3.37694C273.943 3.37694 273.632 3.01523 273.632 2.43142V2.19028C273.632 1.61281 273.943 1.2511 274.577 1.2511C275.187 1.2511 275.478 1.60964 275.507 2.05385L275.51 2.15538H275.025L275.015 2.0126ZM277.291 1.28283V1.69531H276.692V2.64718C276.692 2.87245 276.745 2.93274 276.885 2.93274H277.291V3.34521H276.761C276.336 3.34521 276.219 3.13263 276.219 2.74236V1.69531H275.74V1.28283H275.959C276.203 1.26379 276.27 1.07342 276.263 0.724402H276.739C276.739 1.00044 276.692 1.24158 276.533 1.28283H277.291ZM279.005 3.34521V3.0311C278.881 3.23099 278.675 3.37694 278.38 3.37694C277.948 3.37694 277.711 3.06283 277.711 2.58372V1.28283H278.186V2.52978C278.186 2.81534 278.307 2.97081 278.577 2.97081C278.935 2.97081 279.005 2.69794 279.005 2.51392V1.28283H279.481V3.34521H279.005ZM280.474 1.28283V1.5906C280.562 1.39071 280.781 1.2511 281.051 1.2511C281.394 1.2511 281.66 1.44465 281.66 1.95866V2.21884H281.172V2.0126C281.172 1.76828 281.086 1.65723 280.873 1.65723C280.572 1.65723 280.474 1.86664 280.474 2.05702V3.34521H279.994V1.28283H280.474ZM281.973 2.43142V2.19028C281.973 1.61281 282.284 1.2511 282.934 1.2511C283.524 1.2511 283.854 1.58743 283.854 2.20297V2.43142H282.468V2.47901C282.468 2.77092 282.594 2.96764 282.937 2.96764C283.197 2.96764 283.296 2.85024 283.318 2.71381L283.324 2.64083H283.841L283.838 2.67256C283.8 3.09456 283.502 3.37694 282.934 3.37694C282.284 3.37694 281.973 3.01523 281.973 2.43142ZM282.471 2.08557H283.359L283.356 1.99991C283.318 1.78098 283.172 1.66041 282.918 1.66041C282.62 1.66041 282.49 1.83174 282.471 2.08557ZM286.16 3.37694C285.534 3.37694 285.224 3.09773 285.224 2.63131V2.60276C285.224 2.29816 285.373 2.0824 285.636 2.00308C285.385 1.92058 285.246 1.72069 285.246 1.43513V1.4034C285.246 1.07025 285.509 0.692673 286.172 0.692673C286.762 0.692673 287.08 0.971888 287.08 1.46051V1.50493H286.594V1.43513C286.594 1.2162 286.464 1.09246 286.169 1.09246C285.874 1.09246 285.744 1.21303 285.744 1.40023V1.51445C285.744 1.71435 285.877 1.82222 286.166 1.82222H286.594V1.65406H287.08V1.82222H287.311V2.20297H287.08V2.62179C287.08 3.11359 286.772 3.37694 286.16 3.37694ZM285.722 2.65352C285.722 2.85976 285.849 2.97716 286.16 2.97716C286.464 2.97716 286.594 2.85976 286.594 2.64718V2.20297H286.153C285.861 2.20297 285.722 2.32354 285.722 2.52343V2.65352ZM288.748 3.34521V0.724402H289.243V2.91053H290.477V3.34521H288.748ZM292.083 3.34521V3.0311C291.921 3.28176 291.651 3.37694 291.356 3.37694C290.972 3.37694 290.741 3.19926 290.741 2.83438C290.741 2.43459 291.086 2.28547 291.394 2.20297L291.619 2.14586C291.895 2.07606 292.07 2.02846 292.07 1.86982V1.85395C292.07 1.74607 291.978 1.65089 291.711 1.65089C291.407 1.65089 291.286 1.76511 291.286 1.95866V2.05702H290.807V1.99673C290.807 1.51128 291.115 1.2511 291.705 1.2511C292.336 1.2511 292.546 1.52397 292.546 1.94597V3.34521H292.083ZM291.22 2.77727C291.22 2.91687 291.312 2.97716 291.505 2.97716C291.803 2.97716 292.029 2.809 292.07 2.52343V2.28229C292.022 2.39652 291.876 2.42825 291.699 2.48536L291.496 2.5393C291.312 2.59324 291.22 2.65352 291.22 2.77727ZM293.521 1.28283V1.59695C293.644 1.39706 293.851 1.2511 294.146 1.2511C294.577 1.2511 294.815 1.56522 294.815 2.04433V3.34521H294.339V2.09827C294.339 1.81271 294.219 1.65723 293.949 1.65723C293.59 1.65723 293.521 1.9301 293.521 2.11413V3.34521H293.045V1.28283H293.521ZM296.639 0.724402H297.115V3.34521H296.639V3.09456C296.544 3.23734 296.363 3.37694 296.052 3.37694C295.544 3.37694 295.24 3.02158 295.24 2.5044V2.10461C295.24 1.61916 295.541 1.2511 296.046 1.2511C296.347 1.2511 296.531 1.38436 296.639 1.51763V0.724402ZM295.732 2.48219C295.732 2.73919 295.862 2.96764 296.185 2.96764C296.474 2.96764 296.617 2.78044 296.639 2.54882V2.07606C296.617 1.84443 296.477 1.66041 296.185 1.66041C295.862 1.66041 295.732 1.88568 295.732 2.14586V2.48219ZM298.871 2.16807C299.274 2.26643 299.378 2.46315 299.378 2.73285C299.378 3.09773 299.188 3.37694 298.477 3.37694C297.789 3.37694 297.541 3.12946 297.541 2.66621V2.59007H298.033V2.66304C298.033 2.90101 298.176 2.97716 298.481 2.97716C298.798 2.97716 298.887 2.89784 298.887 2.75823C298.887 2.63449 298.801 2.5742 298.595 2.51074L298.163 2.40604C297.719 2.3172 297.592 2.11413 297.592 1.85395C297.592 1.53032 297.789 1.2511 298.442 1.2511C299.115 1.2511 299.331 1.52714 299.331 1.90789V1.97135H298.839V1.91107C298.839 1.71435 298.706 1.65089 298.439 1.65089C298.243 1.65089 298.084 1.69848 298.084 1.83174C298.084 1.9301 298.16 1.98404 298.347 2.03164L298.871 2.16807ZM301.122 2.0126C301.109 1.83809 300.992 1.66041 300.69 1.66041C300.354 1.66041 300.227 1.8603 300.227 2.15538V2.47901C300.227 2.77092 300.354 2.96764 300.694 2.96764C301.014 2.96764 301.112 2.78996 301.125 2.61545L301.131 2.47901H301.617L301.614 2.5742C301.582 3.01841 301.296 3.37694 300.684 3.37694C300.049 3.37694 299.738 3.01523 299.738 2.43142V2.19028C299.738 1.61281 300.049 1.2511 300.684 1.2511C301.293 1.2511 301.585 1.60964 301.614 2.05385L301.617 2.15538H301.131L301.122 2.0126ZM303.302 3.34521V3.0311C303.14 3.28176 302.87 3.37694 302.575 3.37694C302.191 3.37694 301.96 3.19926 301.96 2.83438C301.96 2.43459 302.306 2.28547 302.613 2.20297L302.839 2.14586C303.115 2.07606 303.289 2.02846 303.289 1.86982V1.85395C303.289 1.74607 303.197 1.65089 302.931 1.65089C302.626 1.65089 302.505 1.76511 302.505 1.95866V2.05702H302.026V1.99673C302.026 1.51128 302.334 1.2511 302.924 1.2511C303.556 1.2511 303.765 1.52397 303.765 1.94597V3.34521H303.302ZM302.439 2.77727C302.439 2.91687 302.531 2.97716 302.724 2.97716C303.023 2.97716 303.248 2.809 303.289 2.52343V2.28229C303.242 2.39652 303.096 2.42825 302.918 2.48536L302.715 2.5393C302.531 2.59324 302.439 2.65352 302.439 2.77727ZM304.743 1.28283V1.53349C304.838 1.39071 305.019 1.2511 305.33 1.2511C305.838 1.2511 306.142 1.60647 306.142 2.12365V2.52343C306.142 3.00889 305.841 3.37694 305.336 3.37694C305.035 3.37694 304.851 3.24368 304.743 3.11042V4.06229H304.264V1.28283H304.743ZM304.743 2.55199C304.765 2.78361 304.905 2.96764 305.197 2.96764C305.52 2.96764 305.65 2.74236 305.65 2.48219V2.14586C305.65 1.88885 305.52 1.66041 305.197 1.66041C304.908 1.66041 304.765 1.84761 304.743 2.07923V2.55199ZM306.515 2.43142V2.19028C306.515 1.61281 306.826 1.2511 307.476 1.2511C308.066 1.2511 308.396 1.58743 308.396 2.20297V2.43142H307.01V2.47901C307.01 2.77092 307.136 2.96764 307.479 2.96764C307.739 2.96764 307.838 2.85024 307.86 2.71381L307.866 2.64083H308.383L308.38 2.67256C308.342 3.09456 308.044 3.37694 307.476 3.37694C306.826 3.37694 306.515 3.01523 306.515 2.43142ZM307.013 2.08557H307.901L307.898 1.99991C307.86 1.78098 307.714 1.66041 307.46 1.66041C307.162 1.66041 307.032 1.83174 307.013 2.08557ZM309.838 3.34521V0.724402H310.886C311.59 0.724402 311.952 1.06707 311.952 1.83174V2.23787C311.952 2.9962 311.584 3.34521 310.886 3.34521H309.838ZM310.333 2.92639H310.892C311.273 2.92639 311.444 2.72333 311.444 2.27595V1.79367C311.444 1.34629 311.273 1.14322 310.889 1.14322H310.333V2.92639ZM312.336 2.43142V2.19028C312.336 1.61281 312.647 1.2511 313.298 1.2511C313.888 1.2511 314.218 1.58743 314.218 2.20297V2.43142H312.831V2.47901C312.831 2.77092 312.958 2.96764 313.301 2.96764C313.561 2.96764 313.659 2.85024 313.682 2.71381L313.688 2.64083H314.205L314.202 2.67256C314.164 3.09456 313.866 3.37694 313.298 3.37694C312.647 3.37694 312.336 3.01523 312.336 2.43142ZM312.834 2.08557H313.723L313.72 1.99991C313.682 1.78098 313.536 1.66041 313.282 1.66041C312.984 1.66041 312.854 1.83174 312.834 2.08557ZM315.902 2.16807C316.305 2.26643 316.41 2.46315 316.41 2.73285C316.41 3.09773 316.22 3.37694 315.509 3.37694C314.82 3.37694 314.573 3.12946 314.573 2.66621V2.59007H315.065V2.66304C315.065 2.90101 315.208 2.97716 315.512 2.97716C315.829 2.97716 315.918 2.89784 315.918 2.75823C315.918 2.63449 315.833 2.5742 315.626 2.51074L315.195 2.40604C314.751 2.3172 314.624 2.11413 314.624 1.85395C314.624 1.53032 314.82 1.2511 315.474 1.2511C316.147 1.2511 316.363 1.52714 316.363 1.90789V1.97135H315.871V1.91107C315.871 1.71435 315.737 1.65089 315.471 1.65089C315.274 1.65089 315.116 1.69848 315.116 1.83174C315.116 1.9301 315.192 1.98404 315.379 2.03164L315.902 2.16807ZM316.843 1.28283H317.322V3.34521H316.843V1.28283ZM316.795 0.914775C316.795 0.781514 316.888 0.692673 317.084 0.692673C317.281 0.692673 317.373 0.781514 317.373 0.914775C317.373 1.03852 317.281 1.13053 317.084 1.13053C316.888 1.13053 316.795 1.03852 316.795 0.914775ZM319.17 3.30714V3.09138C319.075 3.23416 318.894 3.37694 318.58 3.37694C318.072 3.37694 317.768 3.02158 317.768 2.5044V2.10461C317.768 1.61916 318.069 1.2511 318.574 1.2511C318.878 1.2511 319.062 1.38436 319.17 1.5208V1.28283H319.646V3.34204C319.646 3.8148 319.5 4.06229 318.967 4.06229H317.879V3.64981H318.881C319.113 3.64981 319.17 3.55463 319.17 3.30714ZM318.26 2.48219C318.26 2.73919 318.39 2.96764 318.713 2.96764C319.031 2.96764 319.17 2.74236 319.17 2.48219V2.14269C319.17 1.88251 319.034 1.66041 318.713 1.66041C318.39 1.66041 318.26 1.88568 318.26 2.14586V2.48219ZM320.634 1.28283V1.59695C320.758 1.39706 320.964 1.2511 321.259 1.2511C321.691 1.2511 321.929 1.56522 321.929 2.04433V3.34521H321.453V2.09827C321.453 1.81271 321.332 1.65723 321.063 1.65723C320.704 1.65723 320.634 1.9301 320.634 2.11413V3.34521H320.158V1.28283H320.634ZM323.522 3.37694C323.369 3.37694 323.249 3.27224 323.249 3.11042C323.249 2.94226 323.369 2.83755 323.522 2.83755C323.671 2.83755 323.788 2.94226 323.788 3.11042C323.788 3.27224 323.671 3.37694 323.522 3.37694ZM331.545 3.15167H332.763V3.5229H329.923V3.15167H331.129V2.5393H330.225V2.17442H331.129V1.6255H330.057V1.25745H331.326C331.192 1.12736 331.002 0.981406 330.85 0.870355L331.161 0.654598C331.364 0.784687 331.637 0.987752 331.77 1.13371L331.602 1.25745H332.608V1.6255H331.545V2.17442H332.455V2.5393H331.545V3.15167ZM334.153 2.44411L334.172 2.74871C334.061 2.77092 333.947 2.78996 333.835 2.809C333.801 3.10407 333.683 3.41502 333.388 3.62126C333.337 3.54828 333.233 3.43723 333.16 3.37694C333.363 3.25003 333.448 3.05648 333.48 2.86928C333.382 2.88514 333.29 2.90101 333.204 2.91687L333.137 2.59324C333.242 2.58055 333.366 2.56151 333.502 2.54247V2.23153H333.163V1.92058H333.34C333.344 1.78732 333.309 1.58743 333.261 1.43196L333.521 1.36215C333.575 1.51763 333.61 1.72386 333.617 1.8603L333.398 1.92058H333.908L333.718 1.87616C333.759 1.73338 333.804 1.51445 333.823 1.35898H333.198V1.05121H333.502V0.660944H333.848V1.05121H334.137V1.35898H333.851L334.121 1.41609C334.067 1.59695 334.013 1.79367 333.966 1.92058H334.162V2.23153H333.848V2.49171C333.95 2.47584 334.051 2.45998 334.153 2.44411ZM334.603 1.35581H335.019C335.019 1.35581 335.016 1.46686 335.016 1.50493C335 2.8439 334.984 3.30079 334.908 3.42771C334.854 3.51655 334.8 3.54828 334.721 3.56414C334.651 3.58001 334.556 3.58001 334.454 3.57684C334.448 3.49117 334.419 3.35791 334.372 3.27224C334.451 3.27858 334.514 3.27858 334.556 3.27858C334.594 3.27858 334.616 3.26907 334.638 3.22464C334.686 3.14532 334.702 2.77409 334.714 1.68262H334.594C334.559 2.48219 334.461 3.1358 334.162 3.62126C334.121 3.57049 333.985 3.45627 333.918 3.40867C334.191 3.00254 334.286 2.39969 334.311 1.68262H334.172V1.35581H334.321C334.324 1.13053 334.324 0.898911 334.321 0.657771H334.61C334.61 0.898911 334.606 1.13371 334.603 1.35581ZM335.733 1.35898H335.397C335.454 1.51763 335.495 1.72386 335.501 1.8603L335.295 1.91741H335.838L335.625 1.86664C335.666 1.72704 335.714 1.51445 335.733 1.35898ZM336.117 2.23153H335.755V2.56468H336.076V2.87245H335.755V3.62126H335.406V2.87245H335.082V2.56468H335.406V2.23153H335.057V1.91741H335.225C335.222 1.78415 335.19 1.58743 335.14 1.42878L335.384 1.35898H335.07V1.04804H335.406V0.660944H335.755V1.04804H336.072V1.35898H335.809L336.044 1.40975C335.984 1.59378 335.93 1.78732 335.879 1.91741H336.117V2.23153ZM338.823 1.19082V1.00679H338.37V1.19082H338.823ZM339.175 0.781514V1.41609H338.036V0.781514H339.175ZM337.491 1.19082V1.00679H337.046V1.19082H337.491ZM337.843 0.781514V1.41609H336.71V0.781514H337.843ZM337.192 2.44094H337.729V2.2696H337.192V2.44094ZM337.192 1.83174V1.99991H337.729V1.83174H337.192ZM338.687 1.99991V1.83174H338.116V1.99991H338.687ZM338.687 2.44094V2.2696H338.116V2.44094H338.687ZM339.35 2.89466V3.2183H338.116V3.62126H337.729V3.2183H336.523V2.89466H337.729V2.72967H336.824V1.53984H339.074V2.72967H338.116V2.89466H339.35ZM340.743 1.22889H341.488V0.699018H341.869V1.22889H342.662V1.58743H340.743V1.22889ZM341.527 2.95178L341.152 3.0311C341.143 2.72333 341.063 2.19663 340.962 1.7905L341.301 1.73021C341.409 2.13 341.504 2.64083 341.527 2.95178ZM340.46 0.664117L340.813 0.781514C340.73 0.984579 340.629 1.19399 340.514 1.39388V3.61174H340.156V1.93328C340.07 2.04433 339.985 2.14269 339.896 2.23153C339.861 2.13951 339.759 1.9301 339.696 1.83809C339.997 1.55887 340.289 1.11467 340.46 0.664117ZM342.085 3.13263H342.729V3.488H340.679V3.13263H341.72C341.844 2.74554 341.974 2.15855 342.025 1.71117L342.437 1.7778C342.345 2.23787 342.209 2.7614 342.085 3.13263ZM346.402 1.58426H346.041C346.085 1.84761 346.148 2.09509 346.234 2.32354C346.313 2.10778 346.367 1.8603 346.402 1.58426ZM345.19 1.95866L345.257 1.93962L345.368 2.02846C345.422 1.96183 345.473 1.88568 345.52 1.80001H345.143C345.098 1.85395 345.054 1.90789 345.006 1.95866H345.19ZM344.848 1.26379V1.47638H344.952C345.003 1.40657 345.051 1.33677 345.095 1.26379H344.848ZM346.98 1.58426H346.793C346.726 2.05385 346.618 2.44094 346.45 2.76457C346.593 2.98985 346.777 3.17388 347.011 3.29445C346.926 3.3706 346.808 3.51972 346.751 3.62443C346.532 3.49434 346.358 3.323 346.215 3.11359C346.041 3.323 345.822 3.49434 345.546 3.63395C345.511 3.54511 345.4 3.3706 345.33 3.29128C345.628 3.15801 345.847 2.98033 346.012 2.74871C345.923 2.55516 345.853 2.33941 345.796 2.10461C345.749 2.18393 345.701 2.25691 345.65 2.32354C345.609 2.27595 345.52 2.19345 345.441 2.13C345.314 2.27912 345.152 2.44094 344.997 2.56468V2.62814C345.187 2.61545 345.381 2.59641 345.571 2.58055V2.90418C345.381 2.92322 345.187 2.93908 344.997 2.95495V3.26589C344.997 3.42771 344.968 3.51338 344.854 3.56732C344.74 3.61808 344.594 3.62126 344.397 3.62126C344.381 3.5229 344.334 3.38964 344.289 3.30079C344.41 3.30397 344.549 3.30397 344.587 3.30079C344.629 3.30079 344.641 3.29128 344.641 3.25637V2.98668C344.422 3.00571 344.219 3.02475 344.045 3.04062L344.007 2.70429C344.184 2.6916 344.403 2.67573 344.641 2.6567V2.40921H344.765C344.819 2.36162 344.876 2.30768 344.93 2.25057H344.705C344.549 2.38065 344.387 2.49488 344.213 2.59324C344.162 2.52026 344.035 2.37431 343.959 2.3045C344.077 2.24739 344.188 2.18076 344.292 2.11096V1.95866H344.495C344.556 1.90789 344.613 1.85395 344.67 1.80001H344.032V1.47638H344.495V1.26379H344.137V0.946504H344.495V0.657771H344.848V0.946504H345.155V1.16226C345.231 1.029 345.298 0.883046 345.355 0.73392L345.704 0.83228C345.612 1.0639 345.501 1.27649 345.374 1.47638H345.574V1.69214C345.714 1.39706 345.809 1.03217 345.866 0.657771L346.25 0.714883C346.218 0.892565 346.18 1.06707 346.136 1.23524H346.98V1.58426ZM348.198 2.85976H349.401V2.70746H348.198V2.85976ZM349.401 2.29816H348.198V2.45046H349.401V2.29816ZM349.785 1.99356V3.26907C349.785 3.44675 349.74 3.52607 349.61 3.57366C349.48 3.61808 349.293 3.62126 349.036 3.62126C349.017 3.52924 348.966 3.4055 348.925 3.31983C349.077 3.32935 349.28 3.32935 349.328 3.32618C349.385 3.32618 349.401 3.31031 349.401 3.26589V3.11994H348.198V3.62126H347.821V1.99356H349.785ZM349.283 1.25745H348.585C348.515 1.34629 348.439 1.4383 348.366 1.52397C348.674 1.51763 349.004 1.51445 349.337 1.50811C349.267 1.451 349.198 1.39706 349.131 1.34946L349.283 1.25745ZM350.2 1.25745H349.572C349.804 1.42561 350.067 1.6382 350.207 1.80001L349.873 2.0126C349.826 1.95231 349.759 1.88251 349.683 1.80953C348.893 1.83809 348.065 1.8603 347.51 1.87299L347.5 1.53349L347.941 1.52714C348.001 1.44148 348.058 1.34629 348.109 1.25745H347.389V0.927467H348.601V0.657771H348.988V0.927467H350.2V1.25745ZM352.225 0.962369V1.28918H350.695V0.962369H351.276V0.679981H351.641V0.962369H352.225ZM351.752 2.72015H351.158V3.13898H351.752V2.72015ZM350.809 3.62443V2.39335H352.12V3.61174H351.752V3.46578H351.158V3.62443H350.809ZM351.723 1.2987L352.079 1.37485C352.009 1.54935 351.945 1.72386 351.891 1.84443H352.259V2.18711H350.629V1.84443H350.99C350.981 1.71752 350.933 1.5208 350.879 1.37485L351.187 1.31139C351.254 1.45417 351.304 1.64454 351.317 1.77463L351.019 1.84443H351.863L351.593 1.7778C351.641 1.64454 351.698 1.44465 351.723 1.2987ZM353.31 0.822761L353.586 0.994098C353.475 1.30187 353.335 1.66675 353.208 1.93645C353.478 2.22201 353.525 2.4695 353.525 2.67891C353.525 2.91053 353.475 3.066 353.354 3.15167C353.294 3.19292 353.218 3.2183 353.138 3.23099C353.065 3.24051 352.973 3.24051 352.884 3.23734C352.884 3.1358 352.853 2.97399 352.792 2.86611C352.862 2.87245 352.923 2.87563 352.97 2.87245C353.015 2.86928 353.056 2.86293 353.088 2.84707C353.145 2.81217 353.164 2.73919 353.164 2.63131C353.164 2.45998 353.094 2.23153 352.84 1.98404C352.932 1.75877 353.034 1.43513 353.11 1.19399H352.726V3.62126H352.358V0.838626H353.253L353.31 0.822761ZM359.892 1.61281V1.63185C359.892 1.84126 359.883 2.06971 359.848 2.30133C359.956 2.37748 360.051 2.4568 360.127 2.52978C360.118 2.24739 360.118 1.93328 360.118 1.61281H359.892ZM359.125 2.18393L359.302 1.93962C359.372 1.98087 359.445 2.02529 359.521 2.07606C359.537 1.91741 359.54 1.76828 359.54 1.62868V1.61281H359.223V1.77146H358.953L359.083 1.80319C359.029 1.93962 358.975 2.07606 358.925 2.18393H359.125ZM358.76 1.77146H358.265C358.322 1.90155 358.369 2.05702 358.385 2.15855L358.3 2.18393H358.718L358.636 2.16172C358.677 2.05067 358.731 1.8952 358.76 1.77146ZM359.892 1.26697H360.483C360.454 2.13 360.448 3.20243 360.556 3.24051C360.571 3.24686 360.587 2.99937 360.59 2.75506C360.648 2.8439 360.743 2.97399 360.797 3.01841C360.771 3.56414 360.616 3.68789 360.413 3.60222C360.235 3.53242 360.162 3.17071 360.134 2.68208L359.981 2.90735C359.927 2.8439 359.851 2.76775 359.765 2.69477C359.661 3.03744 359.48 3.36743 359.166 3.62126C359.102 3.55463 358.966 3.44357 358.877 3.39281C359.207 3.1358 359.375 2.7963 359.458 2.45046C359.359 2.38065 359.261 2.31085 359.166 2.25057V2.50122H358.684V2.72015H359.128V3.03744H358.684V3.61174H358.335V3.03744H357.862V2.72015H358.335V2.50122H357.836V2.18393H358.081C358.058 2.07288 358.014 1.92376 357.966 1.80953L358.1 1.77146H357.77V1.45417H358.335V1.2511H357.893V0.940159H358.335V0.657771H358.684V0.940159H359.096V1.2511H358.684V1.45417H359.163V1.26697H359.54V0.660944H359.892V1.26697ZM363.925 0.838626V1.19716H362.383V0.838626H363.925ZM361.774 0.657771L362.139 0.806897C361.91 1.10515 361.568 1.43196 361.266 1.64137C361.219 1.55887 361.124 1.40657 361.057 1.3336C361.32 1.16543 361.622 0.879874 361.774 0.657771ZM361.895 1.34312L362.256 1.48272C362.161 1.64454 362.044 1.80953 361.917 1.96818V3.62443H361.539V2.38383C361.45 2.4695 361.365 2.54882 361.279 2.61862C361.225 2.54247 361.098 2.37114 361.022 2.29181C361.346 2.06971 361.691 1.70165 361.895 1.34312ZM364.005 1.71117V2.06971H363.57V3.1834C363.57 3.38646 363.532 3.49117 363.392 3.54828C363.259 3.60539 363.056 3.61174 362.773 3.61174C362.758 3.50069 362.71 3.3357 362.659 3.22782C362.84 3.23734 363.049 3.23734 363.107 3.23416C363.164 3.23416 363.186 3.22147 363.186 3.17388V2.06971H362.25V1.71117H364.005ZM366.74 1.19082V1.00679H366.286V1.19082H366.74ZM367.092 0.781514V1.41609H365.953V0.781514H367.092ZM365.407 1.19082V1.00679H364.963V1.19082H365.407ZM365.759 0.781514V1.41609H364.626V0.781514H365.759ZM365.109 2.44094H365.645V2.2696H365.109V2.44094ZM365.109 1.83174V1.99991H365.645V1.83174H365.109ZM366.603 1.99991V1.83174H366.032V1.99991H366.603ZM366.603 2.44094V2.2696H366.032V2.44094H366.603ZM367.266 2.89466V3.2183H366.032V3.62126H365.645V3.2183H364.439V2.89466H365.645V2.72967H364.741V1.53984H366.99V2.72967H366.032V2.89466H367.266ZM368.659 1.22889H369.405V0.699018H369.786V1.22889H370.579V1.58743H368.659V1.22889ZM369.443 2.95178L369.068 3.0311C369.059 2.72333 368.98 2.19663 368.878 1.7905L369.218 1.73021C369.325 2.13 369.421 2.64083 369.443 2.95178ZM368.377 0.664117L368.729 0.781514C368.646 0.984579 368.545 1.19399 368.431 1.39388V3.61174H368.072V1.93328C367.986 2.04433 367.901 2.14269 367.812 2.23153C367.777 2.13951 367.676 1.9301 367.612 1.83809C367.914 1.55887 368.205 1.11467 368.377 0.664117ZM370.001 3.13263H370.645V3.488H368.596V3.13263H369.636C369.76 2.74554 369.89 2.15855 369.941 1.71117L370.353 1.7778C370.261 2.23787 370.125 2.7614 370.001 3.13263ZM373.068 2.25374V2.05067H372.856V2.25374H373.068ZM373.322 1.85078V2.45363H372.615V1.85078H373.322ZM372.418 3.16119H374.392V1.13053H373.998C374.1 1.1813 374.207 1.25428 374.265 1.31456L374.138 1.44782H374.29V1.71435H373.722C373.738 1.89203 373.757 2.05702 373.782 2.1998C373.846 2.07606 373.893 1.94597 373.931 1.80319L374.22 1.8603C374.144 2.13634 374.03 2.37748 373.887 2.58689C373.928 2.68208 373.976 2.74236 374.033 2.75506C374.068 2.76775 374.093 2.644 374.106 2.45998C374.163 2.51709 374.277 2.60276 374.341 2.63766C374.29 3.02793 374.125 3.1485 373.916 3.05331C373.82 3.02158 373.741 2.9486 373.678 2.8439C373.576 2.94543 373.468 3.03744 373.348 3.11359C373.306 3.05648 373.205 2.93591 373.141 2.88514C373.176 2.86611 373.211 2.8439 373.243 2.82169C372.989 2.85976 372.742 2.89466 372.532 2.92957L372.497 2.65352C372.729 2.62814 373.059 2.59007 373.389 2.54564L373.395 2.70429C373.452 2.6567 373.503 2.60276 373.554 2.54564C373.487 2.3172 373.446 2.02846 373.417 1.71435H372.535V1.44782H373.395C373.389 1.35898 373.386 1.27014 373.379 1.17813H373.69C373.693 1.27014 373.697 1.35898 373.703 1.44782H374.046C373.979 1.39071 373.884 1.32408 373.801 1.27966L373.95 1.13053H372.418V3.16119ZM372.059 0.791032H374.766V3.63078H374.392V3.49751H372.418V3.63078H372.059V0.791032ZM378.063 1.21303V1.58426H375.385V1.21303H376.511V0.660944H376.904V1.21303H378.063ZM376.451 2.91687L376.064 3.02158C376.041 2.6916 375.93 2.18393 375.791 1.79684L376.152 1.70165C376.302 2.09192 376.419 2.58372 376.451 2.91687ZM377.263 3.11994H378.155V3.49751H375.283V3.11994H376.863C377.006 2.73602 377.158 2.14586 377.225 1.68896L377.66 1.76828C377.549 2.2347 377.399 2.74871 377.263 3.11994ZM378.957 1.46686V1.90472H378.624V1.19082H379.82V1.05438H378.837V0.768822H381.182V1.05438H380.185V1.19082H381.41V1.90472H381.061V1.46686H380.185V2.23153H379.82V1.46686H378.957ZM379.014 2.17759V1.93962H379.7V2.17759H379.014ZM379.706 1.58743V1.82222H379.081V1.58743H379.706ZM378.951 2.58055V2.30768H381.09V2.58055H378.951ZM380.306 2.17759V1.93962H381.01V2.17759H380.306ZM380.306 1.58743H380.934V1.82222H380.306V1.58743ZM380.449 2.99937H379.744C379.687 3.07869 379.624 3.15484 379.567 3.22464C379.858 3.2183 380.176 3.21513 380.496 3.20561C380.43 3.15484 380.363 3.10725 380.303 3.066L380.449 2.99937ZM381.448 2.71381V2.99937H380.753C380.963 3.14532 381.194 3.33252 381.324 3.47213L380.969 3.63712C380.934 3.59587 380.886 3.54828 380.833 3.49434C380.09 3.5229 379.319 3.54193 378.796 3.5578L378.767 3.23416C378.881 3.23416 379.011 3.23099 379.151 3.23099C379.198 3.15801 379.246 3.07869 379.29 2.99937H378.58V2.71381H381.448ZM383.241 2.26326L383.006 2.59007C382.949 2.48536 382.854 2.33306 382.758 2.19345V3.61808H382.39V2.34893C382.276 2.64083 382.14 2.90418 381.987 3.08504C381.949 2.97716 381.864 2.81851 381.8 2.72015C382.022 2.4695 382.229 2.05067 382.336 1.66993H381.889V1.31456H382.39V0.657771H382.758V1.31456H383.174V1.66993H382.758V1.72069C382.854 1.81588 383.168 2.17442 383.241 2.26326ZM384.732 1.66993H384.25C384.383 2.10461 384.599 2.54564 384.83 2.809C384.742 2.87563 384.615 3.00571 384.548 3.1009C384.408 2.91053 384.281 2.64083 384.174 2.34575V3.61808H383.793V2.33306C383.644 2.67256 383.453 2.97716 383.247 3.1834C383.203 3.07552 383.104 2.92957 383.034 2.83755C383.33 2.55516 383.587 2.11096 383.733 1.66993H383.272V1.31456H383.793V0.657771H384.174V1.31456H384.732V1.66993ZM387.289 1.30504L387.026 1.53984C386.937 1.4034 386.731 1.20034 386.553 1.0639L386.801 0.848144C386.972 0.978233 387.194 1.16543 387.289 1.30504ZM387.201 2.13634L386.943 2.37748C386.845 2.23787 386.623 2.03481 386.439 1.89203L386.68 1.67627C386.861 1.80319 387.096 1.99991 387.201 2.13634ZM386.398 2.38383L386.176 2.68208C386.138 2.59324 386.061 2.45998 385.985 2.33306V3.62126H385.62V2.47901C385.516 2.72333 385.398 2.9486 385.275 3.10725C385.24 2.99937 385.157 2.8439 385.1 2.74871C385.278 2.54564 385.455 2.20614 385.57 1.89837H385.141V1.54618H385.62V1.18764C385.497 1.20668 385.379 1.22572 385.262 1.23841C385.249 1.15274 385.202 1.029 385.16 0.946504C385.522 0.892565 385.919 0.794205 386.182 0.686327L386.395 0.994098C386.271 1.04169 386.131 1.07977 385.985 1.11149V1.54618H386.404V1.89837H385.985V1.92376C386.077 2.0126 386.337 2.31085 386.398 2.38383ZM388.114 2.75188L387.74 2.81851V3.61808H387.369V2.88514L386.41 3.05014L386.35 2.6916L387.369 2.51709V0.657771H387.74V2.45363L388.054 2.39969L388.114 2.75188ZM389.491 2.00625L389.539 2.3521C389.428 2.38383 389.314 2.41556 389.199 2.44411V3.20243C389.199 3.38646 389.165 3.4753 389.057 3.53559C388.952 3.5927 388.8 3.60222 388.578 3.60222C388.562 3.50703 388.514 3.35791 388.47 3.25955C388.593 3.26272 388.723 3.26272 388.765 3.26272C388.812 3.26272 388.825 3.24686 388.825 3.19926V2.54564L388.517 2.62179L388.419 2.26326C388.536 2.24105 388.673 2.20932 388.825 2.17124V1.60964H388.46V1.26062H388.825V0.657771H389.199V1.26062H389.51V1.60964H389.199V2.07923L389.491 2.00625ZM390.818 2.17759H390.047C390.135 2.387 390.262 2.57737 390.421 2.73919C390.586 2.58055 390.722 2.39335 390.818 2.17759ZM391.056 1.82222L391.297 1.92376C391.176 2.36479 390.973 2.71064 390.707 2.97716C390.913 3.12311 391.157 3.22782 391.439 3.29762C391.36 3.37377 391.252 3.52607 391.198 3.62443C390.891 3.53242 390.627 3.40233 390.408 3.22464C390.161 3.39598 389.882 3.5229 389.574 3.61491C389.533 3.51338 389.441 3.35473 389.371 3.27224C389.65 3.20561 389.907 3.10407 390.129 2.96129C389.942 2.74871 389.793 2.49805 389.679 2.20614L389.774 2.17759H389.609V1.83809H390.234V1.45734H389.552V1.10832H390.234V0.654598H390.608V1.10832H391.319V1.45734H390.608V1.83809H390.989L391.056 1.82222ZM394.622 1.89837H393.505C393.714 2.51709 394.098 3.01523 394.692 3.25637C394.597 3.3357 394.473 3.50386 394.413 3.61174C393.838 3.34204 393.47 2.8788 393.223 2.26643C393.051 2.7963 392.709 3.29128 392.036 3.61491C391.976 3.51021 391.865 3.37377 391.754 3.29445C392.48 2.97081 392.782 2.44411 392.905 1.89837H391.814V1.50811H392.969C393.001 1.20985 392.997 0.921121 393.001 0.660944H393.413C393.41 0.921121 393.407 1.21303 393.375 1.50811H394.622V1.89837ZM396.859 1.04486L396.678 1.20668C396.64 1.16861 396.586 1.12419 396.526 1.07659C396.44 1.13688 396.354 1.19082 396.272 1.23524C396.231 1.19082 396.132 1.10515 396.072 1.0639C396.158 1.029 396.24 0.987752 396.319 0.936986C396.262 0.902084 396.205 0.870355 396.151 0.841799L396.326 0.695845C396.383 0.724402 396.446 0.759303 396.51 0.797378C396.551 0.759303 396.589 0.718056 396.621 0.676808L396.865 0.749785C396.821 0.81007 396.767 0.870355 396.707 0.924294C396.767 0.968715 396.821 1.00996 396.859 1.04486ZM397.122 2.18393L397.332 2.37431C397.173 2.50122 396.976 2.63131 396.783 2.74236H397.896V3.03744H396.697V3.26907C396.697 3.44357 396.662 3.5229 396.532 3.57049C396.402 3.62126 396.227 3.62126 395.989 3.62126C395.97 3.5229 395.916 3.39281 395.869 3.30397C396.024 3.31031 396.212 3.31031 396.262 3.31031C396.313 3.30714 396.329 3.29445 396.329 3.25637V3.03744H395.133V2.74236H396.329V2.59641H396.519C396.586 2.55834 396.653 2.51392 396.716 2.46632H395.694V2.20297H397.043L397.122 2.18393ZM397.662 1.79367H397.903V2.44411H397.528V2.06654H395.491V2.44411H395.133V1.79367H395.377L395.317 0.797378L395.523 0.838626C395.672 0.791032 395.84 0.721229 395.955 0.670462L396.129 0.876701C395.996 0.940159 395.828 0.994098 395.682 1.03217L395.685 1.10515H396.104V1.33994H395.698L395.704 1.44782H396.113V1.60329C396.189 1.56522 396.262 1.52397 396.332 1.47955C396.275 1.44465 396.215 1.40975 396.161 1.37802L396.335 1.23524C396.392 1.26379 396.456 1.2987 396.519 1.33677C396.564 1.29552 396.605 1.2511 396.637 1.20668L396.881 1.27966C396.837 1.34312 396.783 1.40657 396.719 1.46369C396.786 1.51128 396.846 1.55887 396.891 1.60012L396.7 1.75877C396.662 1.71752 396.605 1.66993 396.538 1.61916C396.45 1.68579 396.357 1.7429 396.272 1.7905C396.237 1.75559 396.17 1.69531 396.113 1.65406V1.68262H395.717L395.723 1.79367H397.306L397.316 1.68262H396.938V1.44782H397.338L397.344 1.33994H396.948V1.10515H397.36L397.366 0.997271H396.935V0.759303H397.735C397.719 1.09563 397.693 1.49859 397.662 1.79367ZM400.43 2.25374V2.05067H400.218V2.25374H400.43ZM400.684 1.85078V2.45363H399.977V1.85078H400.684ZM399.78 3.16119H401.754V1.13053H401.36C401.462 1.1813 401.57 1.25428 401.627 1.31456L401.5 1.44782H401.652V1.71435H401.084C401.1 1.89203 401.119 2.05702 401.144 2.1998C401.208 2.07606 401.255 1.94597 401.293 1.80319L401.582 1.8603C401.506 2.13634 401.392 2.37748 401.249 2.58689C401.29 2.68208 401.338 2.74236 401.395 2.75506C401.43 2.76775 401.455 2.644 401.468 2.45998C401.525 2.51709 401.639 2.60276 401.703 2.63766C401.652 3.02793 401.487 3.1485 401.278 3.05331C401.182 3.02158 401.103 2.9486 401.04 2.8439C400.938 2.94543 400.83 3.03744 400.71 3.11359C400.668 3.05648 400.567 2.93591 400.503 2.88514C400.538 2.86611 400.573 2.8439 400.605 2.82169C400.351 2.85976 400.104 2.89466 399.894 2.92957L399.859 2.65352C400.091 2.62814 400.421 2.59007 400.751 2.54564L400.757 2.70429C400.814 2.6567 400.865 2.60276 400.916 2.54564C400.849 2.3172 400.808 2.02846 400.779 1.71435H399.897V1.44782H400.757C400.751 1.35898 400.748 1.27014 400.741 1.17813H401.052C401.056 1.27014 401.059 1.35898 401.065 1.44782H401.408C401.341 1.39071 401.246 1.32408 401.163 1.27966L401.313 1.13053H399.78V3.16119ZM399.421 0.791032H402.128V3.63078H401.754V3.49751H399.78V3.63078H399.421V0.791032ZM405.425 1.21303V1.58426H402.747V1.21303H403.873V0.660944H404.266V1.21303H405.425ZM403.813 2.91687L403.426 3.02158C403.403 2.6916 403.292 2.18393 403.153 1.79684L403.515 1.70165C403.664 2.09192 403.781 2.58372 403.813 2.91687ZM404.625 3.11994H405.517V3.49751H402.645V3.11994H404.225C404.368 2.73602 404.52 2.14586 404.587 1.68896L405.022 1.76828C404.911 2.2347 404.761 2.74871 404.625 3.11994ZM408.28 1.66993L408.658 1.76194C408.528 2.17442 408.34 2.54247 408.112 2.85024C408.204 3.07869 408.306 3.21195 408.407 3.21195C408.483 3.21195 408.521 3.05331 408.537 2.6567C408.623 2.74554 408.756 2.82803 408.858 2.86928C408.797 3.45627 408.67 3.59587 408.375 3.59587C408.153 3.59587 407.979 3.43723 407.839 3.17705C407.677 3.34521 407.5 3.488 407.303 3.60857C407.246 3.52607 407.109 3.3706 407.03 3.29762C407.274 3.16436 407.493 2.98985 407.677 2.78361C407.569 2.42507 407.5 1.98087 407.458 1.50493H406.538V1.84443H407.322C407.322 1.84443 407.319 1.94279 407.319 1.98721C407.309 2.65352 407.29 2.93591 407.217 3.02793C407.157 3.11042 407.094 3.13898 406.998 3.15484C406.916 3.16753 406.779 3.16753 406.633 3.16436C406.627 3.05331 406.586 2.90735 406.529 2.81217C406.643 2.82169 406.751 2.82486 406.802 2.82486C406.846 2.82486 406.871 2.81851 406.897 2.78678C406.929 2.74236 406.941 2.59007 406.951 2.19028H406.538C406.526 2.65352 406.459 3.27224 406.199 3.65933C406.132 3.58636 405.964 3.44675 405.878 3.40233C406.119 3.02158 406.142 2.4695 406.142 2.05702V1.13053H407.436C407.43 0.97506 407.424 0.819588 407.424 0.660944H407.82C407.817 0.819588 407.82 0.97506 407.826 1.13053H408.312C408.195 1.03535 408.036 0.933813 407.906 0.85449L408.134 0.629215C408.309 0.718056 408.54 0.864009 408.651 0.968715L408.499 1.13053H408.829V1.50493H407.849C407.877 1.82222 407.922 2.12048 407.976 2.37431C408.099 2.16172 408.204 1.92693 408.28 1.66993ZM410.447 2.38065L410.495 2.73919C410.076 2.86293 409.619 2.98985 409.27 3.08504L409.178 2.69477C409.308 2.66621 409.467 2.63131 409.635 2.58689V1.35581H409.223V1.00044H410.416V1.35581H410.009V2.49488C410.155 2.4568 410.301 2.41873 410.447 2.38065ZM411.285 1.33042H412.075C412.075 1.33042 412.075 1.45734 412.072 1.50176C412.034 2.78678 411.999 3.25003 411.885 3.40233C411.805 3.51655 411.726 3.55145 411.605 3.57049C411.498 3.58636 411.326 3.58636 411.149 3.58001C411.142 3.47213 411.098 3.31349 411.034 3.20878C411.199 3.22147 411.355 3.22147 411.428 3.22147C411.485 3.22147 411.517 3.21195 411.551 3.16753C411.631 3.08186 411.666 2.68208 411.694 1.69214H411.269C411.215 2.5393 411.031 3.20878 410.336 3.62443C410.279 3.52607 410.162 3.38964 410.07 3.31983C410.685 2.97081 410.847 2.41873 410.888 1.69214H410.46V1.33042H410.904C410.907 1.13688 410.907 0.927467 410.907 0.71171H411.291C411.291 0.924294 411.288 1.13371 411.285 1.33042ZM415.384 1.89837H414.267C414.477 2.51709 414.861 3.01523 415.454 3.25637C415.359 3.3357 415.235 3.50386 415.175 3.61174C414.601 3.34204 414.233 2.8788 413.985 2.26643C413.814 2.7963 413.471 3.29128 412.798 3.61491C412.738 3.51021 412.627 3.37377 412.516 3.29445C413.243 2.97081 413.544 2.44411 413.668 1.89837H412.576V1.50811H413.731C413.763 1.20985 413.76 0.921121 413.763 0.660944H414.175C414.172 0.921121 414.169 1.21303 414.137 1.50811H415.384V1.89837ZM417.621 1.04486L417.44 1.20668C417.402 1.16861 417.348 1.12419 417.288 1.07659C417.202 1.13688 417.117 1.19082 417.034 1.23524C416.993 1.19082 416.895 1.10515 416.834 1.0639C416.92 1.029 417.002 0.987752 417.082 0.936986C417.025 0.902084 416.968 0.870355 416.914 0.841799L417.088 0.695845C417.145 0.724402 417.209 0.759303 417.272 0.797378C417.313 0.759303 417.352 0.718056 417.383 0.676808L417.628 0.749785C417.583 0.81007 417.529 0.870355 417.469 0.924294C417.529 0.968715 417.583 1.00996 417.621 1.04486ZM417.885 2.18393L418.094 2.37431C417.935 2.50122 417.739 2.63131 417.545 2.74236H418.659V3.03744H417.459V3.26907C417.459 3.44357 417.424 3.5229 417.294 3.57049C417.164 3.62126 416.99 3.62126 416.752 3.62126C416.733 3.5229 416.679 3.39281 416.631 3.30397C416.787 3.31031 416.974 3.31031 417.025 3.31031C417.075 3.30714 417.091 3.29445 417.091 3.25637V3.03744H415.895V2.74236H417.091V2.59641H417.282C417.348 2.55834 417.415 2.51392 417.478 2.46632H416.457V2.20297H417.805L417.885 2.18393ZM418.424 1.79367H418.665V2.44411H418.291V2.06654H416.254V2.44411H415.895V1.79367H416.139L416.079 0.797378L416.285 0.838626C416.435 0.791032 416.603 0.721229 416.717 0.670462L416.891 0.876701C416.758 0.940159 416.59 0.994098 416.444 1.03217L416.447 1.10515H416.866V1.33994H416.46L416.466 1.44782H416.876V1.60329C416.952 1.56522 417.025 1.52397 417.094 1.47955C417.037 1.44465 416.977 1.40975 416.923 1.37802L417.098 1.23524C417.155 1.26379 417.218 1.2987 417.282 1.33677C417.326 1.29552 417.367 1.2511 417.399 1.20668L417.643 1.27966C417.599 1.34312 417.545 1.40657 417.482 1.46369C417.548 1.51128 417.609 1.55887 417.653 1.60012L417.463 1.75877C417.424 1.71752 417.367 1.66993 417.301 1.61916C417.212 1.68579 417.12 1.7429 417.034 1.7905C416.999 1.75559 416.933 1.69531 416.876 1.65406V1.68262H416.479L416.485 1.79367H418.069L418.078 1.68262H417.701V1.44782H418.1L418.107 1.33994H417.71V1.10515H418.123L418.129 0.997271H417.697V0.759303H418.497C418.481 1.09563 418.456 1.49859 418.424 1.79367Z" fill="#DDDDDD"/>
<path d="M0.165039 3.82115H13.3643V3.97979H0.165039V3.82115ZM329.749 3.82115H336.348V3.97979H329.749V3.82115ZM336.348 3.82115H339.648V3.97979H336.348V3.82115ZM339.648 3.82115H342.948V3.97979H339.648V3.82115ZM357.665 3.82115H364.265V3.97979H357.665V3.82115ZM364.265 3.82115H367.564V3.97979H364.265V3.82115ZM367.564 3.82115H370.864V3.97979H367.564V3.82115Z" fill="#DDDDDD"/>
<a href="https://zh.wikipedia.org/zh-tw/%E4%B8%AD%E8%8F%AF%E6%B0%91%E5%9C%8B%E6%95%99%E8%82%B2%E9%83%A8#/media/File:ROC_Ministry_of_Education_Seal.svg">
<rect fill="black" fill-opacity="0" x="343.746" y="-0.176608" width="9.77255" height="4.35322"/>
</a>
<a href="https://www.yuntech.edu.tw/index.php/home/2019-07-25-02-21-1">
<rect fill="black" fill-opacity="0" x="371.663" y="-0.176608" width="26.2716" height="4.35322"/>
</a>
<a href="https://web.ncku.edu.tw/p/412-1000-18098.php?Lang=zh-tw">
<rect fill="black" fill-opacity="0" x="399.025" y="-0.176608" width="19.672" height="4.35322"/>
</a>
</svg>
