<svg width="100%" viewBox="0 0 62 19" fill="none" xmlns="http://www.w3.org/2000/svg">
<g clip-path="url(#clip0_445_2418)">
<path d="M61.7788 8.31914V6.25101H57.2282C58.661 4.93184 59.9743 3.47239 61.0917 1.91563L59.0913 0.89062C58.483 1.75724 57.8162 2.5854 57.0705 3.39319V2.42701H52.8128V0.300049H50.497V2.42701H45.8878V4.45667H50.497V6.24875H44.2005V8.31688H50.8709C48.6159 9.65641 43.5742 11.5888 43.5742 11.5888C43.5742 11.5888 44.2883 13.1297 44.5812 13.6433C45.5814 13.27 47.0255 12.7134 48.0077 12.2789V18.7209H50.3415V18.1303H57.0886V18.6417H59.5215V9.894H52.4006C53.2048 9.38262 53.9505 8.86898 54.7141 8.31688H61.7766L61.7788 8.31914ZM57.0908 16.1798H50.3438V14.8403H57.0908V16.1798ZM57.0908 11.806V13.0663H50.3438V11.806H57.0908ZM52.8128 6.25101V4.45893H56.0095C55.3427 5.09023 54.6353 5.68081 53.8919 6.25101H52.8128Z" fill="#DDDDDD"/>
<path d="M25.5679 11.1091C24.4506 13.4148 23.2453 15.4717 22.2654 16.9696L24.3064 18.4268C25.4057 16.4967 26.5614 14.2294 27.5436 12.1409L25.5702 11.1091H25.5679Z" fill="#DDDDDD"/>
<path d="M26.7959 6.76465H22.8333V8.8192H26.7959V6.76465Z" fill="#DDDDDD"/>
<path d="M27.6606 2.32976C26.4441 1.70978 25.1668 1.08753 24.1103 0.399658L22.8352 2.1329C24.0202 2.81851 25.1916 3.54937 26.3067 4.25986L27.6606 2.32976Z" fill="#DDDDDD"/>
<path d="M16.904 14.94V9.2063H7.03687V14.94H16.904ZM9.31216 11.0572H14.471V13.0665H9.31216V11.0572Z" fill="#DDDDDD"/>
<path d="M3.59453 0.782227H0.510498V3.8799H3.59453V0.782227Z" fill="#DDDDDD"/>
<path d="M5.46895 6.17172V8.12218H18.0822V6.17172H13.0022V4.4973H17.2779V2.50837H13.0022V0.320312H10.6864V2.50837H9.31217C9.54646 2.01509 9.7447 1.50372 9.92042 0.990079L7.74199 0.478703C7.17204 2.25268 6.17182 3.98592 4.95532 5.06977C5.48472 5.32546 6.42638 5.81873 6.89721 6.17398H5.46445L5.46895 6.17172ZM8.23535 4.4973H10.6864V6.17172H6.94001C7.39056 5.69881 7.82309 5.12634 8.23535 4.4973Z" fill="#DDDDDD"/>
<path d="M9.13642 16.0623C7.32294 15.9921 5.96002 15.5645 5.11298 14.5417C4.90347 14.2883 4.82012 13.9534 4.82012 13.6253V7.9436H0.289807V10.0909H2.54482V14.1231H0.17041V18.3567H3.14406V16.241H3.59687C3.67346 16.3247 3.73654 16.4085 3.82214 16.4899C4.58358 17.2072 6.68315 18.2299 9.09587 18.3295C11.4297 18.4291 15.3721 18.3883 17.7262 18.2707C17.8434 17.6009 18.197 16.4582 18.4516 15.9061C15.8429 16.103 11.4297 16.1618 9.13416 16.0645L9.13642 16.0623Z" fill="#DDDDDD"/>
<path d="M40.2987 16.7862L38.92 16.1639C38.2172 15.7928 37.5909 15.3674 37.0187 14.8402C37.9401 14.3085 38.9808 13.6591 39.8054 13.0074L38.3546 11.471C37.6675 12.0616 36.647 12.7902 35.7256 13.3627C35.2751 12.7133 34.9011 12.0028 34.6082 11.2357H38.8051V2.54683H34.6263V0.320312H32.2135V2.54683H28.2892V16.0033C27.7395 16.0824 27.467 16.1662 27.0142 16.225L27.289 18.4063C29.2106 18.0714 31.7607 17.6369 34.1352 17.1844L33.7589 15.0868C32.601 15.2837 31.6436 15.4896 30.5262 15.6684V11.2357H32.3307C33.4255 14.4827 35.1534 16.9219 37.9491 18.3112L38.6902 18.6461C38.7646 18.6755 38.8277 18.714 38.902 18.7411C38.902 18.7411 38.902 18.7389 38.902 18.7366L39.3413 18.9267L40.2987 16.7862ZM30.524 4.5946H36.487V5.91377H30.524V4.5946ZM30.524 9.20603V7.88686H36.487V9.20603H30.524Z" fill="#DDDDDD"/>
</g>
<defs>
<clipPath id="clip0_445_2418">
<rect width="61.619" height="18.629" fill="white" transform="translate(0.165039 0.300049)"/>
</clipPath>
</defs>
</svg>
